<?xml version="1.0" encoding="utf-8" standalone="no"?>
<!DOCTYPE svg PUBLIC "-//W3C//DTD SVG 1.1//EN"
  "http://www.w3.org/Graphics/SVG/1.1/DTD/svg11.dtd">
<svg xmlns:xlink="http://www.w3.org/1999/xlink" width="331.2pt" height="230.4pt" viewBox="0 0 331.2 230.4" xmlns="http://www.w3.org/2000/svg" version="1.1">
 <metadata>
  <rdf:RDF xmlns:dc="http://purl.org/dc/elements/1.1/" xmlns:cc="http://creativecommons.org/ns#" xmlns:rdf="http://www.w3.org/1999/02/22-rdf-syntax-ns#">
   <cc:Work>
    <dc:type rdf:resource="http://purl.org/dc/dcmitype/StillImage"/>
    <dc:date>2026-09-28T16:59:44.363783</dc:date>
    <dc:format>image/svg+xml</dc:format>
    <dc:creator>
     <cc:Agent>
      <dc:title>Matplotlib v3.11.2, https://matplotlib.org/</dc:title>
     </cc:Agent>
    </dc:creator>
   </cc:Work>
  </rdf:RDF>
 </metadata>
 <defs>
  <style type="text/css">*{stroke-linejoin: round; stroke-linecap: butt}</style>
 </defs>
 <g id="figure_1">
  <g id="patch_1">
   <path d="M 0 230.4 
L 331.2 230.4 
L 331.2 0 
L 0 0 
z
" style="fill: #ffffff"/>
  </g>
  <g id="axes_1">
   <g id="patch_2">
    <path d="M 55.4 181.72 
L 308.88 181.72 
L 308.88 12.96 
L 55.4 12.96 
z
" style="fill: #ffffff"/>
   </g>
   <g id="matplotlib.axis_1">
    <g id="xtick_1">
     <g id="line2d_1">
      <defs>
       <path id="mef765986e0" d="M 0 0 
L 0 3.5 
" style="stroke: #000000; stroke-width: 0.8"/>
      </defs>
      <g>
       <use xlink:href="#mef765986e0" x="55.4" y="181.72" style="stroke: #000000; stroke-width: 0.8"/>
      </g>
     </g>
     <g id="text_1">
      <!-- 0.0 -->
      <g transform="translate(45.824375 199.28) scale(0.12 -0.12)">
       <defs>
        <path id="HiraginoSans-W4-11" d="M 2144 -90 
C 2758 -90 3232 141 3565 602 
C 3846 998 4019 1696 4019 2464 
C 4019 3002 3936 3501 3770 3949 
C 3693 4160 3558 4371 3379 4550 
C 3078 4858 2650 5024 2157 5024 
C 1498 5024 986 4742 666 4205 
C 435 3834 288 3142 288 2458 
C 288 1939 371 1434 538 986 
C 614 768 749 563 928 384 
C 1242 70 1651 -90 2144 -90 
z
M 2144 4499 
C 2592 4499 2918 4307 3123 3923 
C 3283 3629 3398 3014 3398 2470 
C 3398 2022 3341 1619 3213 1235 
C 3155 1043 3046 870 2912 730 
C 2726 538 2458 435 2150 435 
C 1734 435 1414 614 1197 973 
C 1024 1261 902 1875 902 2451 
C 902 2906 966 3328 1088 3699 
C 1139 3866 1235 4026 1370 4173 
C 1568 4397 1818 4499 2144 4499 
z
" transform="scale(0.015625)"/>
        <path id="HiraginoSans-W4-f" d="M 442 723 
L 442 0 
L 1165 0 
L 1165 723 
L 442 723 
z
" transform="scale(0.015625)"/>
       </defs>
       <use xlink:href="#HiraginoSans-W4-11"/>
       <use xlink:href="#HiraginoSans-W4-f" transform="translate(67.296875 0)"/>
       <use xlink:href="#HiraginoSans-W4-11" transform="translate(92.296875 0)"/>
      </g>
     </g>
    </g>
    <g id="xtick_2">
     <g id="line2d_2">
      <g>
       <use xlink:href="#mef765986e0" x="97.646667" y="181.72" style="stroke: #000000; stroke-width: 0.8"/>
      </g>
     </g>
     <g id="text_2">
      <!-- 0.5 -->
      <g transform="translate(88.071042 199.28) scale(0.12 -0.12)">
       <defs>
        <path id="HiraginoSans-W4-16" d="M 1331 4416 
L 2835 4416 
C 3155 4416 3366 4403 3622 4365 
L 3622 4986 
C 3360 4947 3206 4934 2829 4934 
L 1446 4934 
C 1082 4934 954 4941 762 4966 
C 774 4768 774 4762 774 4742 
C 774 4563 774 4518 749 4307 
L 608 2822 
C 589 2566 570 2445 518 2157 
L 1088 2106 
C 1146 2240 1178 2291 1261 2374 
C 1485 2605 1811 2739 2131 2739 
C 2842 2739 3264 2317 3264 1613 
C 3264 902 2803 435 2106 435 
C 1747 435 1440 563 1235 794 
C 1146 902 1101 986 1037 1171 
L 410 1005 
C 557 685 646 544 813 378 
C 1133 64 1562 -96 2099 -96 
C 3194 -96 3885 576 3885 1638 
C 3885 2605 3245 3238 2272 3238 
C 1830 3238 1472 3098 1158 2803 
C 1197 2982 1197 2982 1203 3091 
L 1331 4416 
z
" transform="scale(0.015625)"/>
       </defs>
       <use xlink:href="#HiraginoSans-W4-11"/>
       <use xlink:href="#HiraginoSans-W4-f" transform="translate(67.296875 0)"/>
       <use xlink:href="#HiraginoSans-W4-16" transform="translate(92.296875 0)"/>
      </g>
     </g>
    </g>
    <g id="xtick_3">
     <g id="line2d_3">
      <g>
       <use xlink:href="#mef765986e0" x="139.893333" y="181.72" style="stroke: #000000; stroke-width: 0.8"/>
      </g>
     </g>
     <g id="text_3">
      <!-- 1.0 -->
      <g transform="translate(130.317708 199.28) scale(0.12 -0.12)">
       <defs>
        <path id="HiraginoSans-W4-12" d="M 1018 4371 
C 1222 4397 1389 4410 1606 4410 
L 1939 4410 
L 1939 755 
C 1939 454 1926 237 1888 0 
L 2598 0 
C 2560 250 2547 448 2547 755 
L 2547 3904 
C 2547 4256 2566 4582 2605 4966 
C 2387 4941 2278 4934 2035 4934 
L 1581 4934 
C 1325 4934 1197 4941 1018 4966 
L 1018 4371 
z
" transform="scale(0.015625)"/>
       </defs>
       <use xlink:href="#HiraginoSans-W4-12"/>
       <use xlink:href="#HiraginoSans-W4-f" transform="translate(67.296875 0)"/>
       <use xlink:href="#HiraginoSans-W4-11" transform="translate(92.296875 0)"/>
      </g>
     </g>
    </g>
    <g id="xtick_4">
     <g id="line2d_4">
      <g>
       <use xlink:href="#mef765986e0" x="182.14" y="181.72" style="stroke: #000000; stroke-width: 0.8"/>
      </g>
     </g>
     <g id="text_4">
      <!-- 1.5 -->
      <g transform="translate(172.564375 199.28) scale(0.12 -0.12)">
       <use xlink:href="#HiraginoSans-W4-12"/>
       <use xlink:href="#HiraginoSans-W4-f" transform="translate(67.296875 0)"/>
       <use xlink:href="#HiraginoSans-W4-16" transform="translate(92.296875 0)"/>
      </g>
     </g>
    </g>
    <g id="xtick_5">
     <g id="line2d_5">
      <g>
       <use xlink:href="#mef765986e0" x="224.386667" y="181.72" style="stroke: #000000; stroke-width: 0.8"/>
      </g>
     </g>
     <g id="text_5">
      <!-- 2.0 -->
      <g transform="translate(214.811042 199.28) scale(0.12 -0.12)">
       <defs>
        <path id="HiraginoSans-W4-13" d="M 3078 0 
C 3424 0 3642 -6 3917 -32 
L 3917 589 
C 3693 557 3430 544 3091 544 
L 1114 544 
C 1280 1114 1606 1478 2451 2042 
C 3181 2528 3341 2656 3546 2912 
C 3738 3142 3846 3443 3846 3744 
C 3846 4525 3200 5030 2202 5030 
C 1613 5030 1158 4858 858 4518 
C 640 4269 531 4026 442 3565 
L 1088 3469 
C 1139 3782 1190 3936 1306 4102 
C 1491 4371 1792 4506 2208 4506 
C 2816 4506 3206 4211 3206 3744 
C 3206 3360 2995 3085 2387 2675 
C 1754 2246 1600 2138 1389 1952 
C 979 1594 710 1229 544 806 
C 448 563 429 461 365 -26 
C 576 -6 678 0 1107 0 
L 3078 0 
z
" transform="scale(0.015625)"/>
       </defs>
       <use xlink:href="#HiraginoSans-W4-13"/>
       <use xlink:href="#HiraginoSans-W4-f" transform="translate(67.296875 0)"/>
       <use xlink:href="#HiraginoSans-W4-11" transform="translate(92.296875 0)"/>
      </g>
     </g>
    </g>
    <g id="xtick_6">
     <g id="line2d_6">
      <g>
       <use xlink:href="#mef765986e0" x="266.633333" y="181.72" style="stroke: #000000; stroke-width: 0.8"/>
      </g>
     </g>
     <g id="text_6">
      <!-- 2.5 -->
      <g transform="translate(257.057708 199.28) scale(0.12 -0.12)">
       <use xlink:href="#HiraginoSans-W4-13"/>
       <use xlink:href="#HiraginoSans-W4-f" transform="translate(67.296875 0)"/>
       <use xlink:href="#HiraginoSans-W4-16" transform="translate(92.296875 0)"/>
      </g>
     </g>
    </g>
    <g id="xtick_7">
     <g id="line2d_7">
      <g>
       <use xlink:href="#mef765986e0" x="308.88" y="181.72" style="stroke: #000000; stroke-width: 0.8"/>
      </g>
     </g>
     <g id="text_7">
      <!-- 3.0 -->
      <g transform="translate(299.304375 199.28) scale(0.12 -0.12)">
       <defs>
        <path id="HiraginoSans-W4-14" d="M 282 1101 
C 397 768 474 621 621 448 
C 934 90 1434 -96 2112 -96 
C 2720 -96 3213 70 3533 384 
C 3770 614 3904 954 3904 1306 
C 3904 1677 3802 1958 3597 2182 
C 3379 2419 3130 2528 2688 2586 
C 2995 2650 3130 2701 3290 2816 
C 3578 3021 3738 3366 3738 3757 
C 3738 4538 3117 5043 2157 5043 
C 1594 5043 1146 4883 845 4576 
C 666 4390 582 4237 467 3891 
L 1107 3757 
C 1171 3981 1216 4083 1306 4192 
C 1478 4416 1741 4525 2125 4525 
C 2746 4525 3110 4224 3110 3725 
C 3110 3482 3021 3264 2867 3110 
C 2669 2918 2374 2829 1965 2829 
C 1779 2829 1613 2842 1459 2861 
L 1459 2272 
C 1651 2298 1811 2310 2003 2310 
C 2829 2310 3264 1990 3264 1376 
C 3264 794 2816 429 2106 429 
C 1779 429 1510 506 1293 666 
C 1107 800 1024 928 928 1248 
L 282 1101 
z
" transform="scale(0.015625)"/>
       </defs>
       <use xlink:href="#HiraginoSans-W4-14"/>
       <use xlink:href="#HiraginoSans-W4-f" transform="translate(67.296875 0)"/>
       <use xlink:href="#HiraginoSans-W4-11" transform="translate(92.296875 0)"/>
      </g>
     </g>
    </g>
    <g id="text_8">
     <!-- $T / T_\mathrm{c}$ -->
     <g transform="translate(170.26 215.28) scale(0.12 -0.12)">
      <defs>
       <path id="DejaVuSans-Oblique-37" d="M 378 4666 
L 4325 4666 
L 4225 4134 
L 2559 4134 
L 1759 0 
L 1125 0 
L 1925 4134 
L 275 4134 
L 378 4666 
z
" transform="scale(0.015625)"/>
       <path id="DejaVuSans-12" d="M 1625 4666 
L 2156 4666 
L 531 -594 
L 0 -594 
L 1625 4666 
z
" transform="scale(0.015625)"/>
       <path id="DejaVuSans-46" d="M 3122 3366 
L 3122 2828 
Q 2878 2963 2633 3030 
Q 2388 3097 2138 3097 
Q 1578 3097 1268 2742 
Q 959 2388 959 1747 
Q 959 1106 1268 751 
Q 1578 397 2138 397 
Q 2388 397 2633 464 
Q 2878 531 3122 666 
L 3122 134 
Q 2881 22 2623 -34 
Q 2366 -91 2075 -91 
Q 1284 -91 818 406 
Q 353 903 353 1747 
Q 353 2603 823 3093 
Q 1294 3584 2113 3584 
Q 2378 3584 2631 3529 
Q 2884 3475 3122 3366 
z
" transform="scale(0.015625)"/>
      </defs>
      <use xlink:href="#DejaVuSans-Oblique-37" transform="translate(0 0.09375)"/>
      <use xlink:href="#DejaVuSans-12" transform="translate(61.083984 0.09375)"/>
      <use xlink:href="#DejaVuSans-Oblique-37" transform="translate(94.775391 0.09375)"/>
      <use xlink:href="#DejaVuSans-46" transform="translate(155.859375 -14.906201) scale(0.7)"/>
     </g>
    </g>
   </g>
   <g id="matplotlib.axis_2">
    <g id="ytick_1">
     <g id="line2d_8">
      <defs>
       <path id="mff435d7a82" d="M 0 0 
L -3.5 0 
" style="stroke: #000000; stroke-width: 0.8"/>
      </defs>
      <g>
       <use xlink:href="#mff435d7a82" x="55.4" y="181.72" style="stroke: #000000; stroke-width: 0.8"/>
      </g>
     </g>
     <g id="text_9">
      <!-- 0.0 -->
      <g transform="translate(29.24875 187) scale(0.12 -0.12)">
       <use xlink:href="#HiraginoSans-W4-11"/>
       <use xlink:href="#HiraginoSans-W4-f" transform="translate(67.296875 0)"/>
       <use xlink:href="#HiraginoSans-W4-11" transform="translate(92.296875 0)"/>
      </g>
     </g>
    </g>
    <g id="ytick_2">
     <g id="line2d_9">
      <g>
       <use xlink:href="#mff435d7a82" x="55.4" y="141.539048" style="stroke: #000000; stroke-width: 0.8"/>
      </g>
     </g>
     <g id="text_10">
      <!-- 0.5 -->
      <g transform="translate(29.24875 146.819048) scale(0.12 -0.12)">
       <use xlink:href="#HiraginoSans-W4-11"/>
       <use xlink:href="#HiraginoSans-W4-f" transform="translate(67.296875 0)"/>
       <use xlink:href="#HiraginoSans-W4-16" transform="translate(92.296875 0)"/>
      </g>
     </g>
    </g>
    <g id="ytick_3">
     <g id="line2d_10">
      <g>
       <use xlink:href="#mff435d7a82" x="55.4" y="101.358095" style="stroke: #000000; stroke-width: 0.8"/>
      </g>
     </g>
     <g id="text_11">
      <!-- 1.0 -->
      <g transform="translate(29.24875 106.638095) scale(0.12 -0.12)">
       <use xlink:href="#HiraginoSans-W4-12"/>
       <use xlink:href="#HiraginoSans-W4-f" transform="translate(67.296875 0)"/>
       <use xlink:href="#HiraginoSans-W4-11" transform="translate(92.296875 0)"/>
      </g>
     </g>
    </g>
    <g id="ytick_4">
     <g id="line2d_11">
      <g>
       <use xlink:href="#mff435d7a82" x="55.4" y="61.177143" style="stroke: #000000; stroke-width: 0.8"/>
      </g>
     </g>
     <g id="text_12">
      <!-- 1.5 -->
      <g transform="translate(29.24875 66.457143) scale(0.12 -0.12)">
       <use xlink:href="#HiraginoSans-W4-12"/>
       <use xlink:href="#HiraginoSans-W4-f" transform="translate(67.296875 0)"/>
       <use xlink:href="#HiraginoSans-W4-16" transform="translate(92.296875 0)"/>
      </g>
     </g>
    </g>
    <g id="ytick_5">
     <g id="line2d_12">
      <g>
       <use xlink:href="#mff435d7a82" x="55.4" y="20.99619" style="stroke: #000000; stroke-width: 0.8"/>
      </g>
     </g>
     <g id="text_13">
      <!-- 2.0 -->
      <g transform="translate(29.24875 26.27619) scale(0.12 -0.12)">
       <use xlink:href="#HiraginoSans-W4-13"/>
       <use xlink:href="#HiraginoSans-W4-f" transform="translate(67.296875 0)"/>
       <use xlink:href="#HiraginoSans-W4-11" transform="translate(92.296875 0)"/>
      </g>
     </g>
    </g>
    <g id="text_14">
     <!-- $C / N k_\mathrm{B}$ -->
     <g transform="translate(23.44875 114.56) rotate(-90) scale(0.12 -0.12)">
      <defs>
       <path id="DejaVuSans-Oblique-26" d="M 4447 4306 
L 4319 3641 
Q 4019 3944 3683 4091 
Q 3347 4238 2956 4238 
Q 2422 4238 2017 3981 
Q 1613 3725 1319 3200 
Q 1131 2863 1032 2486 
Q 934 2109 934 1728 
Q 934 1091 1264 756 
Q 1594 422 2222 422 
Q 2656 422 3056 561 
Q 3456 700 3834 978 
L 3688 231 
Q 3316 72 2936 -9 
Q 2556 -91 2175 -91 
Q 1278 -91 773 396 
Q 269 884 269 1753 
Q 269 2309 461 2846 
Q 653 3384 1013 3828 
Q 1394 4300 1883 4525 
Q 2372 4750 3022 4750 
Q 3422 4750 3780 4639 
Q 4138 4528 4447 4306 
z
" transform="scale(0.015625)"/>
       <path id="DejaVuSans-Oblique-31" d="M 1081 4666 
L 1931 4666 
L 3219 666 
L 4000 4666 
L 4616 4666 
L 3706 0 
L 2853 0 
L 1569 4025 
L 788 0 
L 172 0 
L 1081 4666 
z
" transform="scale(0.015625)"/>
       <path id="DejaVuSans-Oblique-4e" d="M 1172 4863 
L 1747 4863 
L 1197 2028 
L 3169 3500 
L 3916 3500 
L 1716 1825 
L 3322 0 
L 2625 0 
L 1131 1709 
L 800 0 
L 225 0 
L 1172 4863 
z
" transform="scale(0.015625)"/>
       <path id="DejaVuSans-25" d="M 1259 2228 
L 1259 519 
L 2272 519 
Q 2781 519 3026 730 
Q 3272 941 3272 1375 
Q 3272 1813 3026 2020 
Q 2781 2228 2272 2228 
L 1259 2228 
z
M 1259 4147 
L 1259 2741 
L 2194 2741 
Q 2656 2741 2882 2914 
Q 3109 3088 3109 3444 
Q 3109 3797 2882 3972 
Q 2656 4147 2194 4147 
L 1259 4147 
z
M 628 4666 
L 2241 4666 
Q 2963 4666 3353 4366 
Q 3744 4066 3744 3513 
Q 3744 3084 3544 2831 
Q 3344 2578 2956 2516 
Q 3422 2416 3680 2098 
Q 3938 1781 3938 1306 
Q 3938 681 3513 340 
Q 3088 0 2303 0 
L 628 0 
L 628 4666 
z
" transform="scale(0.015625)"/>
      </defs>
      <use xlink:href="#DejaVuSans-Oblique-26" transform="translate(0 0.015625)"/>
      <use xlink:href="#DejaVuSans-12" transform="translate(69.824219 0.015625)"/>
      <use xlink:href="#DejaVuSans-Oblique-31" transform="translate(103.515625 0.015625)"/>
      <use xlink:href="#DejaVuSans-Oblique-4e" transform="translate(178.320312 0.015625)"/>
      <use xlink:href="#DejaVuSans-25" transform="translate(236.230469 -14.984326) scale(0.7)"/>
     </g>
    </g>
   </g>
   <g id="line2d_13">
    <path d="M 56.244933 181.565249 
L 57.089867 181.282299 
L 57.9348 180.915892 
L 58.779733 180.481995 
L 59.624667 179.989835 
L 60.4696 179.445639 
L 61.314533 178.853978 
L 62.159467 178.218393 
L 63.0044 177.541733 
L 63.849333 176.826355 
L 64.694267 176.074252 
L 65.5392 175.287137 
L 66.384133 174.466502 
L 67.229067 173.613666 
L 68.074 172.7298 
L 68.918933 171.815959 
L 69.763867 170.873095 
L 70.6088 169.902075 
L 71.453733 168.903694 
L 72.298667 167.878682 
L 73.1436 166.827713 
L 73.988533 165.751413 
L 74.833467 164.650366 
L 75.6784 163.525114 
L 76.523333 162.37617 
L 77.368267 161.20401 
L 78.2132 160.009086 
L 79.058133 158.791824 
L 79.903067 157.552626 
L 80.748 156.291874 
L 81.592933 155.009931 
L 82.437867 153.707141 
L 83.2828 152.383833 
L 84.127733 151.040319 
L 84.972667 149.6769 
L 85.8176 148.293861 
L 86.662533 146.891478 
L 87.507467 145.470013 
L 88.3524 144.029719 
L 89.197333 142.57084 
L 90.042267 141.093608 
L 90.8872 139.598251 
L 91.732133 138.084983 
L 92.577067 136.554016 
L 93.422 135.005551 
L 94.266933 133.439783 
L 95.111867 131.856903 
L 95.9568 130.257092 
L 96.801733 128.640529 
L 97.646667 127.007385 
L 98.4916 125.357827 
L 99.336533 123.692016 
L 100.181467 122.01011 
L 101.0264 120.312261 
L 101.871333 118.598618 
L 102.716267 116.869324 
L 103.5612 115.124521 
L 104.406133 113.364344 
L 105.251067 111.588927 
L 106.096 109.7984 
L 106.940933 107.992889 
L 107.785867 106.172517 
L 108.6308 104.337405 
L 109.475733 102.48767 
L 110.320667 100.623427 
L 111.1656 98.744789 
L 112.010533 96.851863 
L 112.855467 94.944758 
L 113.7004 93.023578 
L 114.545333 91.088426 
L 115.390267 89.139401 
L 116.2352 87.176602 
L 117.080133 85.200124 
L 117.925067 83.210062 
L 118.77 81.206508 
L 119.614933 79.189553 
L 120.459867 77.159283 
L 121.3048 75.115787 
L 122.149733 73.059149 
L 122.994667 70.989453 
L 123.8396 68.906781 
L 124.684533 66.811212 
L 125.529467 64.702827 
L 126.3744 62.581701 
L 127.219333 60.447913 
L 128.064267 58.301535 
L 128.9092 56.142642 
L 129.754133 53.971305 
L 130.599067 51.787596 
L 131.444 49.591584 
L 132.288933 47.383338 
L 133.133867 45.162925 
L 133.9788 42.930412 
L 134.823733 40.685863 
L 135.668667 38.429344 
L 136.5136 36.160916 
L 137.358533 33.880643 
L 138.203467 31.588585 
L 139.0484 29.284803 
L 139.893333 26.969356 
" clip-path="url(#pc6ea675adf)" style="fill: none; stroke: #1f4e79; stroke-width: 2; stroke-linecap: square"/>
   </g>
   <g id="line2d_14">
    <path d="M 140.06232 27.093039 
L 143.461334 29.438574 
L 146.860347 31.525135 
L 150.259361 33.387973 
L 154.791379 35.579211 
L 159.323398 37.491531 
L 163.855416 39.17278 
L 169.520439 41.006103 
L 175.185461 42.594194 
L 181.983489 44.237509 
L 188.781516 45.648718 
L 196.712548 47.059695 
L 205.776585 48.424774 
L 215.973626 49.712782 
L 227.303671 50.905088 
L 239.766722 51.992946 
L 254.495781 53.048607 
L 271.490849 54.034468 
L 291.884932 54.976744 
L 308.88 55.593888 
L 308.88 55.593888 
" clip-path="url(#pc6ea675adf)" style="fill: none; stroke: #1f4e79; stroke-width: 2; stroke-linecap: square"/>
   </g>
   <g id="line2d_15">
    <path d="M 55.4 61.177143 
L 308.88 61.177143 
" clip-path="url(#pc6ea675adf)" style="fill: none; stroke-dasharray: 2.96,1.28; stroke-dashoffset: 0; stroke: #808080; stroke-width: 0.8"/>
   </g>
   <g id="patch_3">
    <path d="M 55.4 181.72 
L 55.4 12.96 
" style="fill: none; stroke: #000000; stroke-width: 0.8; stroke-linejoin: miter; stroke-linecap: square"/>
   </g>
   <g id="patch_4">
    <path d="M 308.88 181.72 
L 308.88 12.96 
" style="fill: none; stroke: #000000; stroke-width: 0.8; stroke-linejoin: miter; stroke-linecap: square"/>
   </g>
   <g id="patch_5">
    <path d="M 55.4 181.72 
L 308.88 181.72 
" style="fill: none; stroke: #000000; stroke-width: 0.8; stroke-linejoin: miter; stroke-linecap: square"/>
   </g>
   <g id="patch_6">
    <path d="M 55.4 12.96 
L 308.88 12.96 
" style="fill: none; stroke: #000000; stroke-width: 0.8; stroke-linejoin: miter; stroke-linecap: square"/>
   </g>
   <g id="text_15">
    <!-- 古典理想気体 3/2 -->
    <g style="fill: #808080" transform="translate(222.995958 75.602476) scale(0.1 -0.1)">
     <defs>
      <path id="HiraginoSans-W4-779" d="M 2886 4160 
L 1101 4160 
C 813 4160 589 4173 403 4198 
L 403 3648 
C 602 3674 806 3686 1101 3686 
L 2886 3686 
L 2886 2413 
L 1606 2413 
C 1370 2413 1248 2419 1101 2438 
C 1126 2272 1133 2106 1133 1894 
L 1133 166 
C 1133 -77 1120 -275 1094 -461 
L 1645 -461 
L 1645 -83 
L 4768 -83 
L 4768 -461 
L 5312 -461 
C 5286 -282 5274 -83 5274 166 
L 5274 1894 
C 5274 2125 5280 2272 5306 2438 
C 5158 2419 5050 2413 4800 2413 
L 3405 2413 
L 3405 3686 
L 5325 3686 
C 5574 3686 5798 3674 6016 3648 
L 6016 4198 
C 5830 4173 5606 4160 5325 4160 
L 3405 4160 
L 3405 4787 
C 3405 5043 3418 5184 3450 5350 
L 2848 5350 
C 2874 5203 2886 5056 2886 4787 
L 2886 4160 
z
M 1645 1946 
L 4762 1946 
L 4762 378 
L 1645 378 
L 1645 1946 
z
" transform="scale(0.015625)"/>
      <path id="HiraginoSans-W4-c2f" d="M 2272 4448 
L 1408 4448 
C 1139 4448 973 4454 813 4467 
C 832 4320 838 4179 838 3949 
L 838 1549 
C 557 1555 442 1562 256 1587 
L 256 1069 
C 448 1094 659 1107 947 1107 
L 5466 1107 
C 5760 1107 5965 1094 6157 1069 
L 6157 1587 
C 5971 1562 5837 1549 5568 1549 
L 5568 3949 
C 5568 4179 5574 4339 5594 4467 
C 5466 4454 5293 4448 4979 4448 
L 4102 4448 
L 4102 4710 
C 4102 4979 4115 5114 4147 5280 
L 3610 5280 
C 3642 5126 3648 5011 3648 4710 
L 3648 4448 
L 2726 4448 
L 2726 4710 
C 2726 4992 2733 5114 2765 5280 
L 2234 5280 
C 2266 5120 2272 5005 2272 4717 
L 2272 4448 
z
M 2272 1549 
L 1312 1549 
L 1312 2611 
L 2272 2611 
L 2272 1549 
z
M 2726 1549 
L 2726 2611 
L 3648 2611 
L 3648 1549 
L 2726 1549 
z
M 4102 1549 
L 4102 2611 
L 5094 2611 
L 5094 1549 
L 4102 1549 
z
M 2272 3046 
L 1312 3046 
L 1312 4013 
L 2272 4013 
L 2272 3046 
z
M 2726 3046 
L 2726 4013 
L 3648 4013 
L 3648 3046 
L 2726 3046 
z
M 4102 3046 
L 4102 4013 
L 5094 4013 
L 5094 3046 
L 4102 3046 
z
M 2150 941 
C 1811 640 1645 512 1318 339 
C 966 147 717 51 243 -70 
C 397 -211 461 -288 602 -518 
C 1427 -237 1875 32 2566 653 
L 2150 941 
z
M 3680 640 
C 4090 288 4294 134 4634 -64 
C 5011 -282 5286 -410 5754 -557 
C 5869 -346 5920 -269 6067 -96 
C 5587 32 5318 128 4922 346 
C 4582 518 4410 640 4058 934 
L 3680 640 
z
" transform="scale(0.015625)"/>
      <path id="HiraginoSans-W4-f67" d="M 3936 179 
L 2656 179 
C 2342 179 2202 186 2035 211 
L 2035 -288 
C 2240 -262 2381 -256 2701 -256 
L 5517 -256 
C 5837 -256 5978 -262 6176 -288 
L 6176 211 
C 6010 186 5850 179 5536 179 
L 4390 179 
L 4390 1037 
L 5306 1037 
C 5613 1037 5760 1030 5939 1005 
L 5939 1498 
C 5760 1472 5619 1466 5306 1466 
L 4390 1466 
L 4390 2138 
L 5120 2138 
C 5485 2138 5638 2131 5869 2112 
C 5850 2291 5843 2522 5843 2944 
L 5843 4256 
C 5843 4634 5850 4896 5869 5082 
C 5696 5056 5510 5050 5050 5050 
L 3341 5050 
C 2912 5050 2707 5056 2502 5082 
C 2528 4877 2534 4672 2534 4256 
L 2534 2867 
C 2528 2259 2528 2259 2509 2112 
C 2688 2131 2893 2138 3296 2138 
L 3936 2138 
L 3936 1466 
L 3123 1466 
C 2803 1466 2656 1472 2502 1498 
L 2502 1005 
C 2669 1030 2810 1037 3130 1037 
L 3936 1037 
L 3936 179 
z
M 3936 4627 
L 3936 3795 
L 2982 3795 
L 2982 4627 
L 3936 4627 
z
M 4390 4627 
L 5389 4627 
L 5389 3795 
L 4390 3795 
L 4390 4627 
z
M 3936 3379 
L 3936 2560 
L 2982 2560 
L 2982 3379 
L 3936 3379 
z
M 4390 3379 
L 5389 3379 
L 5389 2560 
L 4390 2560 
L 4390 3379 
z
M 1107 4557 
L 1107 3123 
L 813 3123 
C 621 3123 518 3130 371 3155 
L 371 2675 
C 518 2701 634 2707 806 2707 
L 1107 2707 
L 1107 998 
C 672 838 474 774 250 730 
L 390 205 
C 467 243 493 256 646 314 
C 1517 659 1741 755 2317 1037 
L 2291 1517 
C 1952 1350 1837 1293 1574 1184 
L 1574 2707 
L 1798 2707 
C 1958 2707 2086 2701 2221 2682 
L 2221 3155 
C 2080 3130 1978 3123 1798 3123 
L 1574 3123 
L 1574 4557 
L 1856 4557 
C 2054 4557 2176 4550 2342 4531 
L 2342 5030 
C 2182 4998 2048 4992 1805 4992 
L 851 4992 
C 595 4992 448 5005 294 5030 
L 294 4525 
C 480 4550 550 4557 800 4557 
L 1107 4557 
z
" transform="scale(0.015625)"/>
      <path id="HiraginoSans-W4-add" d="M 2509 4064 
C 2682 4064 2835 4058 2982 4038 
L 2982 4518 
C 2829 4499 2714 4493 2502 4493 
L 2016 4493 
L 2016 4781 
C 2016 5088 2022 5171 2048 5312 
L 1523 5312 
C 1549 5171 1562 5043 1562 4794 
L 1562 4493 
L 934 4493 
C 685 4493 538 4499 410 4518 
L 410 4038 
C 544 4058 698 4064 928 4064 
L 1427 4064 
C 1133 3450 736 2950 211 2534 
C 346 2406 429 2291 506 2118 
C 1018 2624 1274 2982 1594 3622 
C 1574 3264 1562 3040 1562 2957 
L 1562 2355 
C 1562 2035 1549 1875 1523 1715 
L 2048 1715 
C 2016 1894 2010 2022 2010 2355 
L 2010 2963 
C 2010 3194 1997 3379 1965 3648 
C 2266 3168 2419 2989 2842 2637 
C 2931 2842 2982 2931 3091 3066 
C 2669 3315 2355 3635 2086 4064 
L 2509 4064 
z
M 3827 5088 
C 3558 5088 3386 5094 3187 5114 
C 3206 4954 3213 4762 3213 4493 
L 3213 2419 
C 3213 2182 3200 1984 3181 1786 
C 3418 1798 3584 1805 3821 1805 
L 5069 1805 
C 5242 1805 5555 1792 5722 1779 
C 5696 1958 5690 2176 5690 2419 
L 5690 4493 
C 5690 4768 5696 4966 5715 5114 
C 5523 5094 5344 5088 5069 5088 
L 3827 5088 
z
M 3667 4672 
L 5229 4672 
L 5229 4134 
L 3667 4134 
L 3667 4672 
z
M 3667 3731 
L 5229 3731 
L 5229 3187 
L 3667 3187 
L 3667 3731 
z
M 3667 2784 
L 5229 2784 
L 5229 2221 
L 3667 2221 
L 3667 2784 
z
M 755 -224 
C 1178 390 1280 595 1504 1325 
L 1062 1510 
C 890 864 742 582 339 77 
L 755 -224 
z
M 2426 960 
C 2426 1274 2432 1376 2458 1555 
L 1907 1555 
C 1933 1370 1946 1197 1946 960 
L 1946 237 
C 1946 -51 2010 -173 2202 -250 
C 2394 -326 2643 -352 3219 -352 
C 4128 -352 4403 -314 4582 -166 
C 4736 -32 4787 128 4851 742 
C 4640 781 4538 819 4365 902 
C 4358 499 4314 282 4230 211 
C 4128 122 3898 96 3232 96 
C 2515 96 2426 128 2426 358 
L 2426 960 
z
M 3994 890 
C 3642 1306 3424 1517 3085 1792 
L 2739 1542 
C 3085 1254 3309 1011 3629 576 
L 3994 890 
z
M 6106 134 
C 5811 678 5587 1005 5158 1542 
L 4736 1318 
C 5126 845 5344 499 5664 -160 
L 6106 134 
z
" transform="scale(0.015625)"/>
      <path id="HiraginoSans-W4-63e" d="M 4979 4365 
C 5382 4365 5645 4352 5779 4320 
L 5779 4851 
C 5562 4819 5344 4806 4979 4806 
L 1869 4806 
C 1939 4934 1971 5005 2035 5133 
C 2093 5254 2106 5274 2144 5350 
L 1613 5453 
C 1594 5331 1562 5229 1485 5069 
C 1190 4448 826 3974 275 3501 
C 467 3379 570 3283 627 3162 
C 1043 3546 1318 3872 1619 4365 
L 4979 4365 
z
M 4339 154 
C 3910 544 3629 781 3110 1171 
C 3328 1408 3456 1562 3629 1798 
C 3782 2010 3782 2010 3885 2138 
L 3392 2400 
C 3309 2150 3085 1824 2733 1453 
C 2259 1779 2029 1926 1530 2214 
L 1197 1907 
C 1760 1574 2022 1408 2400 1126 
C 1875 666 1382 378 467 6 
C 653 -154 717 -230 826 -422 
C 1760 32 2214 326 2778 845 
C 3354 390 3597 166 3987 -243 
L 4339 154 
z
M 4589 2528 
C 4602 1510 4672 928 4845 442 
C 5024 -64 5338 -429 5600 -429 
C 5914 -429 6093 -26 6195 890 
C 6035 960 5933 1037 5786 1184 
C 5754 646 5651 154 5574 154 
C 5504 154 5370 384 5280 640 
C 5139 1069 5062 1683 5062 2432 
C 5062 2650 5069 2797 5088 2989 
C 4902 2970 4755 2963 4358 2963 
L 1242 2963 
C 979 2963 813 2976 659 2995 
L 659 2490 
C 851 2515 1037 2528 1338 2528 
L 4589 2528 
z
M 1466 3424 
C 1626 3450 1798 3456 2067 3456 
L 4614 3456 
C 4915 3456 5088 3450 5254 3424 
L 5254 3917 
C 5120 3898 4928 3885 4614 3885 
L 1997 3885 
C 1754 3885 1568 3891 1466 3910 
L 1466 3424 
z
" transform="scale(0.015625)"/>
      <path id="HiraginoSans-W4-b2e" d="M 3648 774 
L 3648 179 
C 3648 -51 3635 -262 3603 -486 
L 4147 -486 
C 4122 -256 4109 -51 4109 179 
L 4109 774 
L 4672 774 
C 4896 774 5018 768 5171 749 
L 5171 1242 
C 5030 1216 4896 1210 4666 1210 
L 4109 1210 
L 4109 2406 
C 4109 2669 4102 2893 4090 3187 
C 4416 2477 4659 2074 5050 1594 
C 5331 1242 5594 979 5952 685 
C 6074 883 6163 1005 6298 1126 
C 5389 1786 4883 2406 4307 3578 
L 5440 3578 
C 5683 3578 5920 3565 6112 3539 
L 6112 4064 
C 5920 4038 5709 4026 5434 4026 
L 4109 4026 
L 4109 4698 
C 4109 4922 4128 5158 4154 5318 
L 3597 5318 
C 3629 5126 3642 4902 3642 4698 
L 3642 4026 
L 2554 4026 
C 2298 4026 2067 4038 1894 4058 
L 1894 3539 
C 2099 3565 2310 3578 2541 3578 
L 3443 3578 
C 3264 3155 3098 2848 2835 2470 
C 2445 1901 2086 1530 1542 1126 
C 1734 947 1792 883 1888 717 
C 2323 1082 2624 1408 2918 1811 
C 3238 2259 3405 2560 3667 3181 
C 3654 2899 3648 2707 3648 2394 
L 3648 1210 
L 3149 1210 
C 2918 1210 2778 1216 2637 1242 
L 2637 749 
C 2790 768 2918 774 3136 774 
L 3648 774 
z
M 1011 275 
C 1011 -58 1005 -250 973 -486 
L 1523 -486 
C 1504 -269 1491 -45 1491 262 
L 1491 3706 
C 1696 4122 1754 4250 1952 4787 
C 2022 4973 2042 5024 2118 5216 
L 1594 5370 
C 1542 5062 1485 4864 1350 4525 
C 1075 3814 698 3219 154 2624 
C 294 2419 333 2355 416 2144 
C 691 2458 832 2662 1030 3008 
C 1018 2726 1011 2547 1011 2240 
L 1011 275 
z
" transform="scale(0.015625)"/>
      <path id="HiraginoSans-W4-1" transform="scale(0.015625)"/>
      <path id="HiraginoSans-W4-10" d="M 2432 4934 
L 122 -979 
L 691 -979 
L 2995 4934 
L 2432 4934 
z
" transform="scale(0.015625)"/>
     </defs>
     <use xlink:href="#HiraginoSans-W4-779"/>
     <use xlink:href="#HiraginoSans-W4-c2f" transform="translate(100 0)"/>
     <use xlink:href="#HiraginoSans-W4-f67" transform="translate(200 0)"/>
     <use xlink:href="#HiraginoSans-W4-add" transform="translate(300 0)"/>
     <use xlink:href="#HiraginoSans-W4-63e" transform="translate(400 0)"/>
     <use xlink:href="#HiraginoSans-W4-b2e" transform="translate(500 0)"/>
     <use xlink:href="#HiraginoSans-W4-1" transform="translate(600 0)"/>
     <use xlink:href="#HiraginoSans-W4-14" transform="translate(633.296875 0)"/>
     <use xlink:href="#HiraginoSans-W4-10" transform="translate(700.59375 0)"/>
     <use xlink:href="#HiraginoSans-W4-13" transform="translate(749.296875 0)"/>
    </g>
   </g>
  </g>
 </g>
 <defs>
  <clipPath id="pc6ea675adf">
   <rect x="55.4" y="12.96" width="253.48" height="168.76"/>
  </clipPath>
 </defs>
</svg>
