<?xml version="1.0" encoding="utf-8" standalone="no"?>
<!DOCTYPE svg PUBLIC "-//W3C//DTD SVG 1.1//EN"
  "http://www.w3.org/Graphics/SVG/1.1/DTD/svg11.dtd">
<svg xmlns:xlink="http://www.w3.org/1999/xlink" width="331.2pt" height="244.8pt" viewBox="0 0 331.2 244.8" xmlns="http://www.w3.org/2000/svg" version="1.1">
 <metadata>
  <rdf:RDF xmlns:dc="http://purl.org/dc/elements/1.1/" xmlns:cc="http://creativecommons.org/ns#" xmlns:rdf="http://www.w3.org/1999/02/22-rdf-syntax-ns#">
   <cc:Work>
    <dc:type rdf:resource="http://purl.org/dc/dcmitype/StillImage"/>
    <dc:date>2026-09-30T08:00:54.825123</dc:date>
    <dc:format>image/svg+xml</dc:format>
    <dc:creator>
     <cc:Agent>
      <dc:title>Matplotlib v3.11.2, https://matplotlib.org/</dc:title>
     </cc:Agent>
    </dc:creator>
   </cc:Work>
  </rdf:RDF>
 </metadata>
 <defs>
  <style type="text/css">*{stroke-linejoin: round; stroke-linecap: butt}</style>
 </defs>
 <g id="figure_1">
  <g id="patch_1">
   <path d="M 0 244.8 
L 331.2 244.8 
L 331.2 0 
L 0 0 
z
" style="fill: #ffffff"/>
  </g>
  <g id="axes_1">
   <g id="patch_2">
    <path d="M 55.4 196.12 
L 304.92 196.12 
L 304.92 12.96 
L 55.4 12.96 
z
" style="fill: #ffffff"/>
   </g>
   <g id="matplotlib.axis_1">
    <g id="xtick_1">
     <g id="line2d_1">
      <defs>
       <path id="m0c1aad317c" d="M 0 0 
L 0 3.5 
" style="stroke: #000000; stroke-width: 0.8"/>
      </defs>
      <g>
       <use xlink:href="#m0c1aad317c" x="55.4" y="196.12" style="stroke: #000000; stroke-width: 0.8"/>
      </g>
     </g>
     <g id="text_1">
      <!-- 0.00 -->
      <g transform="translate(41.786563 213.68) scale(0.12 -0.12)">
       <defs>
        <path id="HiraginoSans-W4-11" d="M 2144 -90 
C 2758 -90 3232 141 3565 602 
C 3846 998 4019 1696 4019 2464 
C 4019 3002 3936 3501 3770 3949 
C 3693 4160 3558 4371 3379 4550 
C 3078 4858 2650 5024 2157 5024 
C 1498 5024 986 4742 666 4205 
C 435 3834 288 3142 288 2458 
C 288 1939 371 1434 538 986 
C 614 768 749 563 928 384 
C 1242 70 1651 -90 2144 -90 
z
M 2144 4499 
C 2592 4499 2918 4307 3123 3923 
C 3283 3629 3398 3014 3398 2470 
C 3398 2022 3341 1619 3213 1235 
C 3155 1043 3046 870 2912 730 
C 2726 538 2458 435 2150 435 
C 1734 435 1414 614 1197 973 
C 1024 1261 902 1875 902 2451 
C 902 2906 966 3328 1088 3699 
C 1139 3866 1235 4026 1370 4173 
C 1568 4397 1818 4499 2144 4499 
z
" transform="scale(0.015625)"/>
        <path id="HiraginoSans-W4-f" d="M 442 723 
L 442 0 
L 1165 0 
L 1165 723 
L 442 723 
z
" transform="scale(0.015625)"/>
       </defs>
       <use xlink:href="#HiraginoSans-W4-11"/>
       <use xlink:href="#HiraginoSans-W4-f" transform="translate(67.296875 0)"/>
       <use xlink:href="#HiraginoSans-W4-11" transform="translate(92.296875 0)"/>
       <use xlink:href="#HiraginoSans-W4-11" transform="translate(159.59375 0)"/>
      </g>
     </g>
    </g>
    <g id="xtick_2">
     <g id="line2d_2">
      <g>
       <use xlink:href="#m0c1aad317c" x="96.986667" y="196.12" style="stroke: #000000; stroke-width: 0.8"/>
      </g>
     </g>
     <g id="text_2">
      <!-- 0.25 -->
      <g transform="translate(83.373229 213.68) scale(0.12 -0.12)">
       <defs>
        <path id="HiraginoSans-W4-13" d="M 3078 0 
C 3424 0 3642 -6 3917 -32 
L 3917 589 
C 3693 557 3430 544 3091 544 
L 1114 544 
C 1280 1114 1606 1478 2451 2042 
C 3181 2528 3341 2656 3546 2912 
C 3738 3142 3846 3443 3846 3744 
C 3846 4525 3200 5030 2202 5030 
C 1613 5030 1158 4858 858 4518 
C 640 4269 531 4026 442 3565 
L 1088 3469 
C 1139 3782 1190 3936 1306 4102 
C 1491 4371 1792 4506 2208 4506 
C 2816 4506 3206 4211 3206 3744 
C 3206 3360 2995 3085 2387 2675 
C 1754 2246 1600 2138 1389 1952 
C 979 1594 710 1229 544 806 
C 448 563 429 461 365 -26 
C 576 -6 678 0 1107 0 
L 3078 0 
z
" transform="scale(0.015625)"/>
        <path id="HiraginoSans-W4-16" d="M 1331 4416 
L 2835 4416 
C 3155 4416 3366 4403 3622 4365 
L 3622 4986 
C 3360 4947 3206 4934 2829 4934 
L 1446 4934 
C 1082 4934 954 4941 762 4966 
C 774 4768 774 4762 774 4742 
C 774 4563 774 4518 749 4307 
L 608 2822 
C 589 2566 570 2445 518 2157 
L 1088 2106 
C 1146 2240 1178 2291 1261 2374 
C 1485 2605 1811 2739 2131 2739 
C 2842 2739 3264 2317 3264 1613 
C 3264 902 2803 435 2106 435 
C 1747 435 1440 563 1235 794 
C 1146 902 1101 986 1037 1171 
L 410 1005 
C 557 685 646 544 813 378 
C 1133 64 1562 -96 2099 -96 
C 3194 -96 3885 576 3885 1638 
C 3885 2605 3245 3238 2272 3238 
C 1830 3238 1472 3098 1158 2803 
C 1197 2982 1197 2982 1203 3091 
L 1331 4416 
z
" transform="scale(0.015625)"/>
       </defs>
       <use xlink:href="#HiraginoSans-W4-11"/>
       <use xlink:href="#HiraginoSans-W4-f" transform="translate(67.296875 0)"/>
       <use xlink:href="#HiraginoSans-W4-13" transform="translate(92.296875 0)"/>
       <use xlink:href="#HiraginoSans-W4-16" transform="translate(159.59375 0)"/>
      </g>
     </g>
    </g>
    <g id="xtick_3">
     <g id="line2d_3">
      <g>
       <use xlink:href="#m0c1aad317c" x="138.573333" y="196.12" style="stroke: #000000; stroke-width: 0.8"/>
      </g>
     </g>
     <g id="text_3">
      <!-- 0.50 -->
      <g transform="translate(124.959896 213.68) scale(0.12 -0.12)">
       <use xlink:href="#HiraginoSans-W4-11"/>
       <use xlink:href="#HiraginoSans-W4-f" transform="translate(67.296875 0)"/>
       <use xlink:href="#HiraginoSans-W4-16" transform="translate(92.296875 0)"/>
       <use xlink:href="#HiraginoSans-W4-11" transform="translate(159.59375 0)"/>
      </g>
     </g>
    </g>
    <g id="xtick_4">
     <g id="line2d_4">
      <g>
       <use xlink:href="#m0c1aad317c" x="180.16" y="196.12" style="stroke: #000000; stroke-width: 0.8"/>
      </g>
     </g>
     <g id="text_4">
      <!-- 0.75 -->
      <g transform="translate(166.546562 213.68) scale(0.12 -0.12)">
       <defs>
        <path id="HiraginoSans-W4-18" d="M 3898 4966 
C 3661 4941 3526 4934 3117 4934 
L 1165 4934 
C 838 4934 646 4947 390 4979 
L 390 4346 
C 634 4378 819 4390 1146 4390 
L 3200 4390 
C 2643 3635 2368 3187 2054 2541 
C 1664 1741 1491 1171 1280 0 
L 2003 0 
C 2099 685 2163 992 2317 1491 
C 2554 2291 2829 2861 3373 3718 
C 3642 4141 3763 4301 3898 4422 
L 3898 4966 
z
" transform="scale(0.015625)"/>
       </defs>
       <use xlink:href="#HiraginoSans-W4-11"/>
       <use xlink:href="#HiraginoSans-W4-f" transform="translate(67.296875 0)"/>
       <use xlink:href="#HiraginoSans-W4-18" transform="translate(92.296875 0)"/>
       <use xlink:href="#HiraginoSans-W4-16" transform="translate(159.59375 0)"/>
      </g>
     </g>
    </g>
    <g id="xtick_5">
     <g id="line2d_5">
      <g>
       <use xlink:href="#m0c1aad317c" x="221.746667" y="196.12" style="stroke: #000000; stroke-width: 0.8"/>
      </g>
     </g>
     <g id="text_5">
      <!-- 1.00 -->
      <g transform="translate(208.133229 213.68) scale(0.12 -0.12)">
       <defs>
        <path id="HiraginoSans-W4-12" d="M 1018 4371 
C 1222 4397 1389 4410 1606 4410 
L 1939 4410 
L 1939 755 
C 1939 454 1926 237 1888 0 
L 2598 0 
C 2560 250 2547 448 2547 755 
L 2547 3904 
C 2547 4256 2566 4582 2605 4966 
C 2387 4941 2278 4934 2035 4934 
L 1581 4934 
C 1325 4934 1197 4941 1018 4966 
L 1018 4371 
z
" transform="scale(0.015625)"/>
       </defs>
       <use xlink:href="#HiraginoSans-W4-12"/>
       <use xlink:href="#HiraginoSans-W4-f" transform="translate(67.296875 0)"/>
       <use xlink:href="#HiraginoSans-W4-11" transform="translate(92.296875 0)"/>
       <use xlink:href="#HiraginoSans-W4-11" transform="translate(159.59375 0)"/>
      </g>
     </g>
    </g>
    <g id="xtick_6">
     <g id="line2d_6">
      <g>
       <use xlink:href="#m0c1aad317c" x="263.333333" y="196.12" style="stroke: #000000; stroke-width: 0.8"/>
      </g>
     </g>
     <g id="text_6">
      <!-- 1.25 -->
      <g transform="translate(249.719896 213.68) scale(0.12 -0.12)">
       <use xlink:href="#HiraginoSans-W4-12"/>
       <use xlink:href="#HiraginoSans-W4-f" transform="translate(67.296875 0)"/>
       <use xlink:href="#HiraginoSans-W4-13" transform="translate(92.296875 0)"/>
       <use xlink:href="#HiraginoSans-W4-16" transform="translate(159.59375 0)"/>
      </g>
     </g>
    </g>
    <g id="xtick_7">
     <g id="line2d_7">
      <g>
       <use xlink:href="#m0c1aad317c" x="304.92" y="196.12" style="stroke: #000000; stroke-width: 0.8"/>
      </g>
     </g>
     <g id="text_7">
      <!-- 1.50 -->
      <g transform="translate(291.306562 213.68) scale(0.12 -0.12)">
       <use xlink:href="#HiraginoSans-W4-12"/>
       <use xlink:href="#HiraginoSans-W4-f" transform="translate(67.296875 0)"/>
       <use xlink:href="#HiraginoSans-W4-16" transform="translate(92.296875 0)"/>
       <use xlink:href="#HiraginoSans-W4-11" transform="translate(159.59375 0)"/>
      </g>
     </g>
    </g>
    <g id="text_8">
     <!-- $T / T_\mathrm{c}$ -->
     <g transform="translate(168.28 229.68) scale(0.12 -0.12)">
      <defs>
       <path id="DejaVuSans-Oblique-37" d="M 378 4666 
L 4325 4666 
L 4225 4134 
L 2559 4134 
L 1759 0 
L 1125 0 
L 1925 4134 
L 275 4134 
L 378 4666 
z
" transform="scale(0.015625)"/>
       <path id="DejaVuSans-12" d="M 1625 4666 
L 2156 4666 
L 531 -594 
L 0 -594 
L 1625 4666 
z
" transform="scale(0.015625)"/>
       <path id="DejaVuSans-46" d="M 3122 3366 
L 3122 2828 
Q 2878 2963 2633 3030 
Q 2388 3097 2138 3097 
Q 1578 3097 1268 2742 
Q 959 2388 959 1747 
Q 959 1106 1268 751 
Q 1578 397 2138 397 
Q 2388 397 2633 464 
Q 2878 531 3122 666 
L 3122 134 
Q 2881 22 2623 -34 
Q 2366 -91 2075 -91 
Q 1284 -91 818 406 
Q 353 903 353 1747 
Q 353 2603 823 3093 
Q 1294 3584 2113 3584 
Q 2378 3584 2631 3529 
Q 2884 3475 3122 3366 
z
" transform="scale(0.015625)"/>
      </defs>
      <use xlink:href="#DejaVuSans-Oblique-37" transform="translate(0 0.09375)"/>
      <use xlink:href="#DejaVuSans-12" transform="translate(61.083984 0.09375)"/>
      <use xlink:href="#DejaVuSans-Oblique-37" transform="translate(94.775391 0.09375)"/>
      <use xlink:href="#DejaVuSans-46" transform="translate(155.859375 -14.906201) scale(0.7)"/>
     </g>
    </g>
   </g>
   <g id="matplotlib.axis_2">
    <g id="ytick_1">
     <g id="line2d_8">
      <defs>
       <path id="mc381be845b" d="M 0 0 
L -3.5 0 
" style="stroke: #000000; stroke-width: 0.8"/>
      </defs>
      <g>
       <use xlink:href="#mc381be845b" x="55.4" y="196.12" style="stroke: #000000; stroke-width: 0.8"/>
      </g>
     </g>
     <g id="text_9">
      <!-- 0.0 -->
      <g transform="translate(29.24875 201.4) scale(0.12 -0.12)">
       <use xlink:href="#HiraginoSans-W4-11"/>
       <use xlink:href="#HiraginoSans-W4-f" transform="translate(67.296875 0)"/>
       <use xlink:href="#HiraginoSans-W4-11" transform="translate(92.296875 0)"/>
      </g>
     </g>
    </g>
    <g id="ytick_2">
     <g id="line2d_9">
      <g>
       <use xlink:href="#mc381be845b" x="55.4" y="145.242222" style="stroke: #000000; stroke-width: 0.8"/>
      </g>
     </g>
     <g id="text_10">
      <!-- 0.5 -->
      <g transform="translate(29.24875 150.522222) scale(0.12 -0.12)">
       <use xlink:href="#HiraginoSans-W4-11"/>
       <use xlink:href="#HiraginoSans-W4-f" transform="translate(67.296875 0)"/>
       <use xlink:href="#HiraginoSans-W4-16" transform="translate(92.296875 0)"/>
      </g>
     </g>
    </g>
    <g id="ytick_3">
     <g id="line2d_10">
      <g>
       <use xlink:href="#mc381be845b" x="55.4" y="94.364444" style="stroke: #000000; stroke-width: 0.8"/>
      </g>
     </g>
     <g id="text_11">
      <!-- 1.0 -->
      <g transform="translate(29.24875 99.644444) scale(0.12 -0.12)">
       <use xlink:href="#HiraginoSans-W4-12"/>
       <use xlink:href="#HiraginoSans-W4-f" transform="translate(67.296875 0)"/>
       <use xlink:href="#HiraginoSans-W4-11" transform="translate(92.296875 0)"/>
      </g>
     </g>
    </g>
    <g id="ytick_4">
     <g id="line2d_11">
      <g>
       <use xlink:href="#mc381be845b" x="55.4" y="43.486667" style="stroke: #000000; stroke-width: 0.8"/>
      </g>
     </g>
     <g id="text_12">
      <!-- 1.5 -->
      <g transform="translate(29.24875 48.766667) scale(0.12 -0.12)">
       <use xlink:href="#HiraginoSans-W4-12"/>
       <use xlink:href="#HiraginoSans-W4-f" transform="translate(67.296875 0)"/>
       <use xlink:href="#HiraginoSans-W4-16" transform="translate(92.296875 0)"/>
      </g>
     </g>
    </g>
    <g id="text_13">
     <!-- $C / (N k_\mathrm{B})$ -->
     <g transform="translate(23.44875 126.5) rotate(-90) scale(0.12 -0.12)">
      <defs>
       <path id="DejaVuSans-Oblique-26" d="M 4447 4306 
L 4319 3641 
Q 4019 3944 3683 4091 
Q 3347 4238 2956 4238 
Q 2422 4238 2017 3981 
Q 1613 3725 1319 3200 
Q 1131 2863 1032 2486 
Q 934 2109 934 1728 
Q 934 1091 1264 756 
Q 1594 422 2222 422 
Q 2656 422 3056 561 
Q 3456 700 3834 978 
L 3688 231 
Q 3316 72 2936 -9 
Q 2556 -91 2175 -91 
Q 1278 -91 773 396 
Q 269 884 269 1753 
Q 269 2309 461 2846 
Q 653 3384 1013 3828 
Q 1394 4300 1883 4525 
Q 2372 4750 3022 4750 
Q 3422 4750 3780 4639 
Q 4138 4528 4447 4306 
z
" transform="scale(0.015625)"/>
       <path id="DejaVuSans-b" d="M 1984 4856 
Q 1566 4138 1362 3434 
Q 1159 2731 1159 2009 
Q 1159 1288 1364 580 
Q 1569 -128 1984 -844 
L 1484 -844 
Q 1016 -109 783 600 
Q 550 1309 550 2009 
Q 550 2706 781 3412 
Q 1013 4119 1484 4856 
L 1984 4856 
z
" transform="scale(0.015625)"/>
       <path id="DejaVuSans-Oblique-31" d="M 1081 4666 
L 1931 4666 
L 3219 666 
L 4000 4666 
L 4616 4666 
L 3706 0 
L 2853 0 
L 1569 4025 
L 788 0 
L 172 0 
L 1081 4666 
z
" transform="scale(0.015625)"/>
       <path id="DejaVuSans-Oblique-4e" d="M 1172 4863 
L 1747 4863 
L 1197 2028 
L 3169 3500 
L 3916 3500 
L 1716 1825 
L 3322 0 
L 2625 0 
L 1131 1709 
L 800 0 
L 225 0 
L 1172 4863 
z
" transform="scale(0.015625)"/>
       <path id="DejaVuSans-25" d="M 1259 2228 
L 1259 519 
L 2272 519 
Q 2781 519 3026 730 
Q 3272 941 3272 1375 
Q 3272 1813 3026 2020 
Q 2781 2228 2272 2228 
L 1259 2228 
z
M 1259 4147 
L 1259 2741 
L 2194 2741 
Q 2656 2741 2882 2914 
Q 3109 3088 3109 3444 
Q 3109 3797 2882 3972 
Q 2656 4147 2194 4147 
L 1259 4147 
z
M 628 4666 
L 2241 4666 
Q 2963 4666 3353 4366 
Q 3744 4066 3744 3513 
Q 3744 3084 3544 2831 
Q 3344 2578 2956 2516 
Q 3422 2416 3680 2098 
Q 3938 1781 3938 1306 
Q 3938 681 3513 340 
Q 3088 0 2303 0 
L 628 0 
L 628 4666 
z
" transform="scale(0.015625)"/>
       <path id="DejaVuSans-c" d="M 513 4856 
L 1013 4856 
Q 1481 4119 1714 3412 
Q 1947 2706 1947 2009 
Q 1947 1309 1714 600 
Q 1481 -109 1013 -844 
L 513 -844 
Q 928 -128 1133 580 
Q 1338 1288 1338 2009 
Q 1338 2731 1133 3434 
Q 928 4138 513 4856 
z
" transform="scale(0.015625)"/>
      </defs>
      <use xlink:href="#DejaVuSans-Oblique-26" transform="translate(0 0.015625)"/>
      <use xlink:href="#DejaVuSans-12" transform="translate(69.824219 0.015625)"/>
      <use xlink:href="#DejaVuSans-b" transform="translate(103.515625 0.015625)"/>
      <use xlink:href="#DejaVuSans-Oblique-31" transform="translate(142.529297 0.015625)"/>
      <use xlink:href="#DejaVuSans-Oblique-4e" transform="translate(217.333984 0.015625)"/>
      <use xlink:href="#DejaVuSans-25" transform="translate(275.244141 -14.984326) scale(0.7)"/>
      <use xlink:href="#DejaVuSans-c" transform="translate(326.000977 0.015625)"/>
     </g>
    </g>
   </g>
   <g id="line2d_12">
    <path d="M 58.726933 196.12 
L 83.691372 196.010004 
L 87.770528 195.749882 
L 91.19702 195.309192 
L 94.134013 194.715475 
L 97.071006 193.888897 
L 99.844832 192.876819 
L 102.618659 191.632728 
L 105.555651 190.063519 
L 108.492644 188.243184 
L 111.592803 186.063859 
L 115.019295 183.369757 
L 118.608953 180.255797 
L 122.524943 176.556334 
L 126.767266 172.23794 
L 131.499087 167.095534 
L 136.720408 161.087339 
L 142.594394 153.985201 
L 149.28421 145.542675 
L 157.116191 135.285658 
L 166.253502 122.93479 
L 177.022475 107.990008 
L 190.075777 89.478255 
L 206.066071 66.401125 
L 221.730032 43.511088 
L 221.730032 43.511088 
" clip-path="url(#p9b76563b0b)" style="fill: none; stroke: #1f4e79; stroke-width: 2; stroke-linecap: square"/>
   </g>
   <g id="line2d_13">
    <path d="M 221.763301 196.12 
L 304.92 196.12 
L 304.92 196.12 
" clip-path="url(#p9b76563b0b)" style="fill: none; stroke: #1f4e79; stroke-width: 2; stroke-linecap: square"/>
   </g>
   <g id="line2d_14">
    <path d="M 55.4 43.486667 
L 304.92 43.486667 
" clip-path="url(#p9b76563b0b)" style="fill: none; stroke-dasharray: 0.8,1.32; stroke-dashoffset: 0; stroke: #808080; stroke-width: 0.8"/>
   </g>
   <g id="patch_3">
    <path d="M 55.4 196.12 
L 55.4 12.96 
" style="fill: none; stroke: #000000; stroke-width: 0.8; stroke-linejoin: miter; stroke-linecap: square"/>
   </g>
   <g id="patch_4">
    <path d="M 304.92 196.12 
L 304.92 12.96 
" style="fill: none; stroke: #000000; stroke-width: 0.8; stroke-linejoin: miter; stroke-linecap: square"/>
   </g>
   <g id="patch_5">
    <path d="M 55.4 196.12 
L 304.92 196.12 
" style="fill: none; stroke: #000000; stroke-width: 0.8; stroke-linejoin: miter; stroke-linecap: square"/>
   </g>
   <g id="patch_6">
    <path d="M 55.4 12.96 
L 304.92 12.96 
" style="fill: none; stroke: #000000; stroke-width: 0.8; stroke-linejoin: miter; stroke-linecap: square"/>
   </g>
   <g id="text_14">
    <!-- $\frac{3}{2}$ -->
    <g style="fill: #808080" transform="translate(63.717333 35.994) scale(0.12 -0.12)">
     <defs>
      <path id="DejaVuSans-16" d="M 2597 2516 
Q 3050 2419 3304 2112 
Q 3559 1806 3559 1356 
Q 3559 666 3084 287 
Q 2609 -91 1734 -91 
Q 1441 -91 1130 -33 
Q 819 25 488 141 
L 488 750 
Q 750 597 1062 519 
Q 1375 441 1716 441 
Q 2309 441 2620 675 
Q 2931 909 2931 1356 
Q 2931 1769 2642 2001 
Q 2353 2234 1838 2234 
L 1294 2234 
L 1294 2753 
L 1863 2753 
Q 2328 2753 2575 2939 
Q 2822 3125 2822 3475 
Q 2822 3834 2567 4026 
Q 2313 4219 1838 4219 
Q 1578 4219 1281 4162 
Q 984 4106 628 3988 
L 628 4550 
Q 988 4650 1302 4700 
Q 1616 4750 1894 4750 
Q 2613 4750 3031 4423 
Q 3450 4097 3450 3541 
Q 3450 3153 3228 2886 
Q 3006 2619 2597 2516 
z
" transform="scale(0.015625)"/>
      <path id="DejaVuSans-15" d="M 1228 531 
L 3431 531 
L 3431 0 
L 469 0 
L 469 531 
Q 828 903 1448 1529 
Q 2069 2156 2228 2338 
Q 2531 2678 2651 2914 
Q 2772 3150 2772 3378 
Q 2772 3750 2511 3984 
Q 2250 4219 1831 4219 
Q 1534 4219 1204 4116 
Q 875 4013 500 3803 
L 500 4441 
Q 881 4594 1212 4672 
Q 1544 4750 1819 4750 
Q 2544 4750 2975 4387 
Q 3406 4025 3406 3419 
Q 3406 3131 3298 2873 
Q 3191 2616 2906 2266 
Q 2828 2175 2409 1742 
Q 1991 1309 1228 531 
z
" transform="scale(0.015625)"/>
     </defs>
     <use xlink:href="#DejaVuSans-16" transform="translate(6.25 36.046875) scale(0.7)"/>
     <use xlink:href="#DejaVuSans-15" transform="translate(6.25 -35.651562) scale(0.7)"/>
     <path d="M 6.25 22.551563 
L 6.25 28.801563 
L 50.786133 28.801563 
L 50.786133 22.551563 
L 6.25 22.551563 
z
"/>
    </g>
   </g>
  </g>
 </g>
 <defs>
  <clipPath id="p9b76563b0b">
   <rect x="55.4" y="12.96" width="249.52" height="183.16"/>
  </clipPath>
 </defs>
</svg>
