<?xml version="1.0" encoding="utf-8" standalone="no"?>
<!DOCTYPE svg PUBLIC "-//W3C//DTD SVG 1.1//EN"
  "http://www.w3.org/Graphics/SVG/1.1/DTD/svg11.dtd">
<svg xmlns:xlink="http://www.w3.org/1999/xlink" width="604.8pt" height="230.4pt" viewBox="0 0 604.8 230.4" xmlns="http://www.w3.org/2000/svg" version="1.1">
 <metadata>
  <rdf:RDF xmlns:dc="http://purl.org/dc/elements/1.1/" xmlns:cc="http://creativecommons.org/ns#" xmlns:rdf="http://www.w3.org/1999/02/22-rdf-syntax-ns#">
   <cc:Work>
    <dc:type rdf:resource="http://purl.org/dc/dcmitype/StillImage"/>
    <dc:date>2026-09-30T08:00:54.644801</dc:date>
    <dc:format>image/svg+xml</dc:format>
    <dc:creator>
     <cc:Agent>
      <dc:title>Matplotlib v3.11.2, https://matplotlib.org/</dc:title>
     </cc:Agent>
    </dc:creator>
   </cc:Work>
  </rdf:RDF>
 </metadata>
 <defs>
  <style type="text/css">*{stroke-linejoin: round; stroke-linecap: butt}</style>
 </defs>
 <g id="figure_1">
  <g id="patch_1">
   <path d="M 0 230.4 
L 604.8 230.4 
L 604.8 0 
L 0 0 
z
" style="fill: #ffffff"/>
  </g>
  <g id="axes_1">
   <g id="patch_2">
    <path d="M 12.96 181.72 
L 295.567159 181.72 
L 295.567159 29.90625 
L 12.96 29.90625 
z
" style="fill: #ffffff"/>
   </g>
   <g id="matplotlib.axis_1">
    <g id="xtick_1">
     <g id="line2d_1">
      <defs>
       <path id="m54b2bf5ca8" d="M 0 0 
L 0 3.5 
" style="stroke: #000000; stroke-width: 0.8"/>
      </defs>
      <g>
       <use xlink:href="#m54b2bf5ca8" x="189.589474" y="181.72" style="stroke: #000000; stroke-width: 0.8"/>
      </g>
     </g>
     <g id="text_1">
      <!-- $T_\mathrm{c}$ -->
      <g transform="translate(183.409474 199.28) scale(0.12 -0.12)">
       <defs>
        <path id="DejaVuSans-Oblique-37" d="M 378 4666 
L 4325 4666 
L 4225 4134 
L 2559 4134 
L 1759 0 
L 1125 0 
L 1925 4134 
L 275 4134 
L 378 4666 
z
" transform="scale(0.015625)"/>
        <path id="DejaVuSans-46" d="M 3122 3366 
L 3122 2828 
Q 2878 2963 2633 3030 
Q 2388 3097 2138 3097 
Q 1578 3097 1268 2742 
Q 959 2388 959 1747 
Q 959 1106 1268 751 
Q 1578 397 2138 397 
Q 2388 397 2633 464 
Q 2878 531 3122 666 
L 3122 134 
Q 2881 22 2623 -34 
Q 2366 -91 2075 -91 
Q 1284 -91 818 406 
Q 353 903 353 1747 
Q 353 2603 823 3093 
Q 1294 3584 2113 3584 
Q 2378 3584 2631 3529 
Q 2884 3475 3122 3366 
z
" transform="scale(0.015625)"/>
       </defs>
       <use xlink:href="#DejaVuSans-Oblique-37" transform="translate(0 0.09375)"/>
       <use xlink:href="#DejaVuSans-46" transform="translate(61.083984 -14.906201) scale(0.7)"/>
      </g>
     </g>
    </g>
    <g id="text_2">
     <!-- $T$ -->
     <g transform="translate(150.54358 215.76) scale(0.12 -0.12)">
      <use xlink:href="#DejaVuSans-Oblique-37" transform="translate(0 0.09375)"/>
     </g>
    </g>
   </g>
   <g id="matplotlib.axis_2"/>
   <g id="line2d_2">
    <path d="M 16.492589 37.135476 
L 73.146825 37.240745 
L 84.337786 37.503877 
L 93.430441 37.930364 
L 101.823661 38.551747 
L 109.517446 39.352164 
L 116.511796 40.297857 
L 123.506146 41.472917 
L 129.801061 42.743068 
L 136.095976 44.229461 
L 142.390892 45.946666 
L 148.685807 47.909987 
L 154.281287 49.875132 
L 159.876767 52.060635 
L 165.472247 54.480862 
L 171.067727 57.152178 
L 176.663207 60.09353 
L 181.559252 62.90615 
L 186.455297 65.960143 
L 189.253037 67.821529 
L 189.253037 67.821529 
" clip-path="url(#p93e80845c7)" style="fill: none; stroke: #b03a2e; stroke-width: 2; stroke-linecap: square"/>
   </g>
   <g id="line2d_3">
    <path d="M 189.952472 181.72 
L 295.567159 181.72 
L 295.567159 181.72 
" clip-path="url(#p93e80845c7)" style="fill: none; stroke: #b03a2e; stroke-width: 2; stroke-linecap: square"/>
   </g>
   <g id="line2d_4">
    <path d="M 16.492589 37.135476 
L 57.759255 37.244873 
L 66.152475 37.519198 
L 73.146825 37.97824 
L 79.441741 38.632083 
L 85.037221 39.442819 
L 90.632701 40.499298 
L 95.528746 41.645924 
L 100.424791 43.017498 
L 105.320836 44.630599 
L 110.216881 46.502239 
L 114.413491 48.325925 
L 118.610101 50.365152 
L 122.806711 52.633567 
L 127.003321 55.146531 
L 131.199931 57.921645 
L 135.396541 60.979411 
L 139.593152 64.344106 
L 143.789762 68.04497 
L 147.286937 71.411445 
L 150.784112 75.061533 
L 154.281287 79.02638 
L 157.778462 83.344895 
L 161.275637 88.06681 
L 164.073377 92.178009 
L 166.871117 96.632575 
L 169.668857 101.488061 
L 172.466597 106.82278 
L 175.264337 112.748227 
L 177.362642 117.678161 
L 179.460947 123.140609 
L 181.559252 129.301966 
L 182.958122 133.929959 
L 184.356992 139.130638 
L 185.755862 145.147569 
L 187.154732 152.48047 
L 187.854167 156.995583 
L 188.553602 162.587008 
L 189.253037 170.798767 
L 189.952472 181.72 
L 295.567159 181.72 
L 295.567159 181.72 
" clip-path="url(#p93e80845c7)" style="fill: none; stroke-dasharray: 7.4,3.2; stroke-dashoffset: 0; stroke: #1f4e79; stroke-width: 2"/>
   </g>
   <g id="line2d_5">
    <path d="M 189.589474 181.72 
L 189.589474 29.90625 
" clip-path="url(#p93e80845c7)" style="fill: none; stroke-dasharray: 0.8,1.32; stroke-dashoffset: 0; stroke: #808080; stroke-width: 0.8"/>
   </g>
   <g id="patch_3">
    <path d="M 12.96 181.72 
L 12.96 29.90625 
" style="fill: none; stroke: #000000; stroke-width: 0.8; stroke-linejoin: miter; stroke-linecap: square"/>
   </g>
   <g id="patch_4">
    <path d="M 295.567159 181.72 
L 295.567159 29.90625 
" style="fill: none; stroke: #000000; stroke-width: 0.8; stroke-linejoin: miter; stroke-linecap: square"/>
   </g>
   <g id="patch_5">
    <path d="M 12.96 181.72 
L 295.567159 181.72 
" style="fill: none; stroke: #000000; stroke-width: 0.8; stroke-linejoin: miter; stroke-linecap: square"/>
   </g>
   <g id="patch_6">
    <path d="M 12.96 29.90625 
L 295.567159 29.90625 
" style="fill: none; stroke: #000000; stroke-width: 0.8; stroke-linejoin: miter; stroke-linecap: square"/>
   </g>
   <g id="text_3">
    <!-- 秩序変数 (磁化など) -->
    <g transform="translate(99.825767 23.90625) scale(0.12 -0.12)">
     <defs>
      <path id="HiraginoSans-W4-b9f" d="M 4026 3731 
C 4013 3206 3994 2893 3962 2618 
L 3238 2618 
C 2976 2618 2746 2630 2554 2656 
L 2554 2150 
C 2739 2170 3021 2182 3238 2182 
L 3891 2182 
C 3782 1709 3603 1318 3322 941 
C 2989 506 2624 218 2029 -70 
C 2202 -211 2278 -301 2374 -486 
C 3309 19 3936 762 4237 1715 
C 4557 813 5082 147 5939 -448 
C 6048 -243 6112 -147 6266 19 
C 5363 550 4838 1190 4506 2182 
L 5344 2182 
C 5581 2182 5830 2170 6029 2144 
L 6029 2656 
C 5875 2630 5613 2618 5338 2618 
L 4422 2618 
C 4454 2925 4474 3213 4486 3731 
L 5203 3731 
C 5459 3731 5626 3718 5875 3693 
L 5875 4198 
C 5715 4173 5510 4160 5203 4160 
L 4493 4160 
C 4493 4294 4499 4320 4499 4403 
C 4499 5088 4499 5133 4531 5325 
L 4000 5325 
C 4032 5139 4038 5011 4038 4474 
C 4038 4288 4038 4288 4032 4160 
L 3341 4160 
C 3379 4301 3398 4403 3430 4544 
C 3456 4653 3494 4845 3520 4941 
L 3053 5037 
C 3053 4934 3034 4794 3002 4621 
C 2880 4006 2675 3488 2406 3104 
C 2586 3021 2669 2970 2810 2854 
C 2989 3162 3085 3373 3206 3731 
L 4026 3731 
z
M 1325 3699 
L 781 3699 
C 582 3699 442 3706 320 3725 
L 320 3251 
C 448 3270 589 3277 768 3277 
L 1280 3277 
C 1184 2957 1107 2765 966 2470 
C 723 1971 499 1651 160 1280 
C 288 1146 352 1056 442 864 
C 826 1306 1152 1914 1350 2592 
C 1338 2304 1325 1965 1325 1645 
L 1325 250 
C 1325 -134 1318 -301 1286 -506 
L 1830 -506 
C 1798 -307 1792 -134 1792 250 
L 1792 1805 
C 1792 1920 1779 2246 1766 2688 
C 1920 2266 2061 2016 2368 1632 
C 2464 1824 2502 1882 2624 2022 
C 2317 2330 2150 2554 1952 2912 
C 1875 3059 1843 3130 1792 3277 
L 2042 3277 
C 2214 3277 2368 3270 2477 3251 
L 2477 3725 
C 2368 3706 2246 3699 2067 3699 
L 1792 3699 
L 1792 4685 
C 2042 4762 2221 4832 2387 4902 
C 2502 4954 2502 4954 2573 4986 
L 2278 5389 
C 2182 5312 2106 5274 1965 5216 
C 1517 5030 1088 4922 371 4826 
C 480 4666 512 4602 576 4410 
C 992 4486 1120 4512 1325 4557 
L 1325 3699 
z
" transform="scale(0.015625)"/>
      <path id="HiraginoSans-W4-982" d="M 2554 3130 
C 3136 2797 3507 2560 3827 2304 
L 2138 2304 
C 1805 2304 1645 2310 1472 2336 
L 1472 1843 
C 1632 1869 1792 1875 2125 1875 
L 3418 1875 
L 3418 141 
C 3418 19 3366 -13 3162 -13 
C 2867 -13 2643 6 2336 58 
C 2400 -109 2438 -237 2464 -442 
C 2739 -461 2963 -467 3206 -467 
C 3725 -467 3904 -333 3904 45 
L 3904 1875 
L 5376 1875 
C 5056 1536 4851 1376 4410 1114 
C 4550 1024 4653 928 4774 774 
C 5242 1114 5574 1414 5811 1722 
C 5952 1901 5990 1952 6048 2010 
L 5747 2330 
C 5645 2310 5466 2304 5184 2304 
L 4435 2304 
C 4205 2490 4083 2592 4070 2598 
C 4518 2861 5011 3213 5286 3462 
C 5427 3584 5427 3584 5498 3648 
L 5203 3955 
C 5094 3942 4941 3936 4672 3936 
L 2470 3936 
C 2163 3936 2042 3942 1862 3968 
L 1862 3494 
C 2048 3520 2202 3526 2458 3526 
L 4704 3526 
C 4410 3277 4160 3104 3731 2854 
C 3405 3085 3251 3187 2854 3411 
L 2554 3130 
z
M 3174 4813 
L 1536 4813 
C 1216 4813 1011 4819 813 4845 
C 832 4589 838 4403 838 3987 
C 838 2528 781 1670 646 1030 
C 550 589 442 307 218 -51 
C 410 -186 493 -262 614 -422 
C 1197 550 1325 1427 1331 4371 
L 5414 4371 
C 5754 4371 5926 4365 6086 4339 
L 6086 4851 
C 5901 4826 5702 4813 5402 4813 
L 3661 4813 
L 3661 4966 
C 3661 5165 3667 5274 3693 5376 
L 3142 5376 
C 3168 5248 3174 5158 3174 4973 
L 3174 4813 
z
" transform="scale(0.015625)"/>
      <path id="HiraginoSans-W4-e21" d="M 2477 4288 
C 2464 3782 2419 3546 2298 3296 
C 2150 2995 1882 2771 1414 2541 
C 1606 2432 1709 2342 1818 2214 
C 2650 2714 2918 3206 2950 4288 
L 3674 4288 
L 3674 3002 
C 3674 2893 3648 2867 3507 2867 
C 3354 2867 3206 2880 2989 2912 
C 3072 2758 3110 2637 3130 2464 
C 3315 2451 3507 2445 3654 2445 
C 4026 2445 4147 2547 4147 2874 
L 4147 4288 
L 5242 4288 
C 5517 4288 5760 4275 5965 4256 
L 5965 4755 
C 5766 4730 5574 4717 5229 4717 
L 3437 4717 
L 3437 4890 
C 3437 5069 3450 5190 3469 5325 
L 2899 5325 
C 2918 5190 2931 5069 2931 4890 
L 2931 4717 
L 1146 4717 
C 806 4717 595 4730 429 4755 
L 429 4256 
C 621 4282 794 4288 1120 4288 
L 2477 4288 
z
M 4640 1946 
C 4518 1926 4326 1914 4051 1914 
L 2656 1914 
C 2771 2042 2842 2125 2931 2234 
C 2982 2291 2989 2298 3034 2349 
L 2579 2547 
C 2458 2330 2298 2144 2016 1894 
C 1594 1517 1152 1254 589 1050 
C 723 909 774 838 877 666 
C 1299 851 1581 1011 1946 1280 
C 2221 992 2445 800 2803 550 
C 2413 378 2042 262 1574 160 
C 1158 77 934 51 243 6 
C 371 -154 429 -269 499 -467 
C 1184 -378 1504 -326 1901 -224 
C 2387 -96 2861 77 3251 275 
C 3936 -96 4736 -326 5888 -499 
C 5946 -320 6022 -173 6150 13 
C 5094 77 4410 224 3693 538 
C 4077 806 4397 1075 4755 1440 
C 4858 1549 4870 1568 4941 1632 
L 4640 1946 
z
M 4166 1517 
C 3789 1133 3590 979 3238 768 
C 2861 992 2541 1248 2298 1517 
L 4166 1517 
z
M 1510 4083 
C 1357 3725 1229 3526 992 3270 
C 819 3085 678 2976 390 2771 
C 576 2650 614 2618 787 2451 
C 1082 2688 1210 2810 1402 3040 
C 1638 3322 1760 3507 1946 3885 
L 1510 4083 
z
M 4390 3770 
C 4864 3328 5114 3027 5517 2432 
L 5939 2758 
C 5517 3283 5242 3578 4755 4026 
L 4390 3770 
z
" transform="scale(0.015625)"/>
      <path id="HiraginoSans-W4-a3a" d="M 6170 4173 
C 6003 4141 5862 4134 5568 4134 
L 4288 4134 
C 4365 4384 4435 4627 4512 4947 
C 4557 5126 4563 5152 4595 5235 
L 4077 5344 
C 4070 5158 4032 4934 3974 4672 
C 3782 3853 3437 3130 2995 2598 
C 3142 2509 3226 2438 3354 2291 
C 3526 2515 3610 2643 3770 2931 
C 3904 2176 4070 1702 4397 1158 
C 4013 653 3526 275 2803 -77 
C 2944 -218 3021 -326 3110 -506 
C 3776 -141 4256 250 4666 755 
C 5069 230 5485 -141 6035 -467 
C 6138 -237 6202 -128 6317 13 
C 5747 314 5338 653 4954 1158 
C 5171 1523 5325 1875 5440 2304 
C 5562 2739 5613 3078 5651 3699 
C 5920 3699 6035 3693 6170 3667 
L 6170 4173 
z
M 5184 3699 
C 5133 2797 4992 2214 4672 1600 
C 4358 2170 4192 2707 4064 3539 
C 4096 3610 4102 3629 4128 3699 
L 5184 3699 
z
M 3046 339 
C 2752 512 2656 570 2419 685 
C 2643 992 2746 1190 2880 1626 
L 2963 1626 
C 3187 1626 3309 1619 3443 1594 
L 3443 2067 
C 3328 2042 3206 2035 2989 2035 
L 1862 2035 
C 1926 2176 1958 2234 2029 2426 
L 1562 2528 
C 1485 2285 1453 2202 1382 2035 
L 832 2035 
C 608 2035 493 2042 365 2067 
L 365 1594 
C 499 1619 614 1626 832 1626 
L 1165 1626 
C 1005 1344 941 1248 723 954 
C 1203 774 1402 691 1702 550 
C 1376 294 902 83 326 -58 
C 429 -205 493 -314 563 -480 
C 1325 -224 1715 -19 2112 346 
C 2432 173 2502 122 2778 -77 
L 3046 339 
z
M 2419 1626 
C 2310 1306 2214 1120 2022 870 
C 1818 960 1709 1005 1357 1146 
C 1504 1370 1549 1440 1651 1626 
L 2419 1626 
z
M 2163 4070 
L 2163 4902 
C 2163 5075 2170 5203 2189 5325 
L 1696 5325 
C 1722 5184 1728 5075 1728 4896 
L 1728 4070 
L 915 4070 
C 666 4070 531 4077 390 4102 
L 390 3642 
C 518 3667 678 3674 902 3674 
L 1434 3674 
C 1133 3258 864 3034 269 2688 
C 410 2566 486 2477 589 2317 
C 1184 2739 1408 2963 1747 3494 
C 1734 3366 1728 3258 1728 3162 
L 1728 2835 
C 1728 2752 1722 2662 1702 2586 
L 2182 2586 
C 2170 2662 2163 2758 2163 2848 
L 2163 3168 
C 2163 3258 2157 3347 2138 3494 
C 2355 3162 2490 3014 2848 2739 
C 2989 2970 3002 2982 3130 3110 
C 2816 3277 2566 3469 2406 3674 
L 2989 3674 
C 3200 3674 3309 3667 3418 3648 
L 3418 4096 
C 3322 4077 3200 4070 2995 4070 
L 2163 4070 
z
M 570 5056 
C 774 4768 896 4550 1024 4211 
L 1427 4371 
C 1286 4704 1190 4883 960 5210 
L 570 5056 
z
M 2918 5235 
C 2784 4883 2643 4634 2406 4333 
L 2790 4147 
C 3008 4442 3104 4608 3328 5050 
L 2918 5235 
z
" transform="scale(0.015625)"/>
      <path id="HiraginoSans-W4-1" transform="scale(0.015625)"/>
      <path id="HiraginoSans-W4-9" d="M 2195 -749 
C 1830 -198 1683 90 1542 538 
C 1402 986 1331 1472 1331 1978 
C 1331 2483 1402 2963 1542 3411 
C 1683 3859 1830 4147 2195 4698 
L 1715 5018 
C 1350 4461 1197 4173 1037 3712 
C 838 3155 742 2579 742 1978 
C 742 1376 838 794 1037 243 
C 1197 -218 1350 -512 1715 -1062 
L 2195 -749 
z
" transform="scale(0.015625)"/>
      <path id="HiraginoSans-W4-8d3" d="M 1978 -288 
C 2074 -262 2157 -250 2387 -218 
C 2899 -154 3258 -96 3590 -26 
C 3622 -154 3642 -250 3686 -518 
L 4122 -410 
L 4077 -224 
C 4173 -211 4173 -211 4339 -192 
C 4806 -147 5248 -77 5619 6 
C 5664 -166 5683 -230 5747 -486 
L 6195 -346 
C 5914 550 5894 602 5581 1242 
L 5178 1107 
C 5338 774 5402 640 5498 365 
C 5178 307 4934 275 4576 243 
C 5190 1229 5363 1549 5888 2707 
L 5472 2950 
C 5293 2483 5171 2208 4954 1779 
C 4845 1958 4781 2054 4576 2336 
C 4826 2765 4973 3078 5235 3725 
L 4781 3904 
C 4653 3456 4493 3072 4294 2720 
C 4198 2829 4192 2835 4090 2963 
L 3898 2694 
L 3584 2880 
C 3424 2451 3334 2246 3130 1850 
C 3002 2067 2925 2189 2797 2381 
C 3059 2790 3110 2893 3482 3738 
L 3027 3917 
C 2906 3482 2765 3149 2528 2746 
L 2362 2963 
L 2099 2630 
C 2099 2899 2099 2982 2118 3123 
C 2003 3110 1926 3104 1722 3104 
L 1178 3104 
C 1363 3642 1440 3994 1530 4634 
L 1824 4634 
C 2035 4634 2150 4627 2304 4608 
L 2304 5094 
C 2144 5069 2003 5062 1798 5062 
L 896 5062 
C 698 5062 550 5069 365 5094 
L 365 4608 
C 518 4627 666 4634 851 4634 
L 1062 4634 
C 1024 4211 986 3994 896 3661 
C 723 3002 493 2541 128 2086 
C 230 1952 288 1843 365 1638 
C 493 1811 550 1901 666 2131 
C 678 2150 698 2195 723 2240 
C 710 1920 704 1747 704 1594 
L 704 384 
C 704 141 691 -64 666 -237 
L 1133 -237 
L 1133 294 
L 1728 294 
C 1933 294 1978 294 2118 282 
C 2099 448 2099 474 2099 813 
L 2099 2586 
C 2445 2163 2694 1798 2899 1414 
C 2630 928 2630 928 2144 173 
C 2125 173 2106 173 2093 173 
C 2061 173 1965 179 1901 186 
L 1978 -288 
z
M 3264 1088 
C 3373 806 3398 736 3501 346 
C 3296 307 3091 275 2662 224 
C 2957 672 3021 774 3277 1229 
C 3616 1811 3654 1882 3923 2451 
C 4230 2093 4474 1747 4717 1325 
C 4480 883 4480 883 4077 218 
C 4038 218 4019 218 3968 218 
C 3872 576 3808 774 3648 1203 
L 3264 1088 
z
M 1120 2688 
L 1683 2688 
L 1683 723 
L 1120 723 
L 1120 2688 
z
M 2720 4403 
C 2477 4403 2330 4410 2150 4442 
L 2150 3942 
C 2304 3962 2438 3968 2630 3968 
L 5542 3968 
C 5766 3968 5926 3962 6086 3936 
L 6086 4442 
C 5907 4416 5760 4403 5523 4403 
L 4896 4403 
C 5024 4582 5165 4813 5376 5197 
L 4877 5357 
C 4762 5011 4640 4762 4403 4403 
L 3782 4403 
C 3616 4774 3488 5024 3283 5357 
L 2822 5190 
C 3027 4922 3149 4723 3296 4403 
L 2720 4403 
z
" transform="scale(0.015625)"/>
      <path id="HiraginoSans-W4-53d" d="M 3578 2298 
C 4410 2752 5050 3194 5600 3699 
C 5882 3949 5882 3949 5958 4013 
L 5542 4422 
C 5325 4134 5094 3910 4691 3584 
C 4333 3302 3942 3046 3578 2861 
L 3578 4570 
C 3578 4858 3590 5101 3616 5280 
L 3040 5280 
C 3059 5114 3078 4851 3078 4570 
L 3078 333 
C 3078 -192 3251 -282 4294 -282 
C 5299 -282 5613 -224 5786 0 
C 5933 186 6016 570 6086 1306 
C 5926 1344 5805 1395 5600 1510 
C 5555 806 5498 486 5389 346 
C 5299 230 5056 192 4358 192 
C 3674 192 3578 224 3578 435 
L 3578 2298 
z
M 1318 314 
C 1318 19 1306 -224 1274 -486 
L 1856 -486 
C 1830 -230 1818 51 1818 301 
L 1818 3674 
C 2080 4256 2202 4550 2310 4845 
C 2413 5120 2413 5120 2451 5203 
L 1894 5363 
C 1862 5107 1818 4941 1683 4595 
C 1363 3795 915 3136 269 2490 
C 384 2349 480 2189 563 2010 
C 909 2387 1152 2701 1331 3021 
C 1318 2688 1318 2573 1318 2259 
L 1318 314 
z
" transform="scale(0.015625)"/>
      <path id="HiraginoSans-W4-373" d="M 2074 5229 
C 2054 4941 1971 4454 1862 4051 
C 1760 4045 1594 4045 1421 4045 
C 1062 4045 870 4058 646 4096 
L 646 3571 
C 678 3571 704 3571 717 3571 
C 755 3571 806 3571 870 3571 
C 1062 3565 1114 3565 1267 3565 
C 1536 3565 1562 3565 1728 3571 
C 1434 2586 922 1530 467 954 
L 986 653 
C 1018 710 1056 781 1114 877 
C 1357 1306 1414 1414 1568 1722 
C 1850 2310 2080 2925 2272 3590 
C 2707 3622 3072 3674 3315 3718 
C 3462 3744 3462 3744 3533 3750 
L 3514 4282 
C 3238 4192 2835 4122 2406 4083 
C 2483 4384 2522 4525 2566 4742 
C 2624 5018 2624 5037 2662 5152 
L 2074 5229 
z
M 5933 3488 
C 5408 3827 4954 4051 4211 4339 
L 3936 3904 
C 4627 3654 5133 3398 5670 3027 
L 5933 3488 
z
M 5939 640 
C 5901 672 5901 672 5843 717 
C 5786 774 5760 794 5664 870 
C 5280 1171 5050 1299 4576 1510 
C 4538 1792 4506 2182 4506 2451 
C 4506 2694 4525 2822 4595 3066 
L 4070 3110 
C 4026 2893 4006 2726 4006 2515 
C 4006 2304 4026 1958 4051 1645 
C 3782 1709 3622 1728 3405 1728 
C 2618 1728 2067 1312 2067 717 
C 2067 333 2304 6 2682 -122 
C 2886 -198 3142 -237 3379 -237 
C 3827 -237 4198 -96 4390 147 
C 4518 307 4602 563 4602 806 
C 4602 858 4602 890 4589 973 
C 5037 730 5434 422 5670 128 
L 5939 640 
z
M 4077 1152 
C 4083 1152 4096 966 4096 896 
C 4096 454 3853 243 3347 243 
C 2867 243 2579 429 2579 736 
C 2579 1062 2899 1274 3405 1274 
C 3648 1274 3821 1242 4077 1152 
z
" transform="scale(0.015625)"/>
      <path id="HiraginoSans-W4-372" d="M 1933 5018 
C 1971 4915 1978 4877 2035 4608 
C 2189 3840 2317 3354 2490 2835 
C 2093 2630 1888 2502 1645 2304 
C 1280 2003 1075 1613 1075 1222 
C 1075 781 1267 422 1613 230 
C 1997 13 2502 -77 3328 -77 
C 3795 -77 4122 -58 4787 13 
L 5274 51 
L 5216 678 
C 4806 538 4070 454 3328 454 
C 2899 454 2477 486 2266 544 
C 1850 653 1651 870 1651 1210 
C 1651 1453 1766 1696 1984 1888 
C 2253 2131 2669 2362 3168 2554 
C 3885 2822 4672 3072 5152 3174 
L 4934 3750 
C 4819 3693 4794 3680 4512 3584 
C 3386 3194 3386 3194 2995 3034 
C 2778 3686 2554 4678 2528 5120 
L 1933 5018 
z
M 4275 4992 
C 4538 4698 4742 4378 4941 3981 
L 5318 4192 
C 5094 4608 4947 4826 4646 5184 
L 4275 4992 
z
M 5018 5338 
C 5299 5005 5491 4717 5677 4346 
L 6048 4557 
C 5818 4979 5677 5178 5376 5530 
L 5018 5338 
z
" transform="scale(0.015625)"/>
      <path id="HiraginoSans-W4-a" d="M 653 -1062 
C 1018 -512 1171 -218 1331 243 
C 1530 794 1626 1370 1626 1978 
C 1626 2579 1530 3155 1331 3712 
C 1171 4173 1018 4461 653 5018 
L 173 4698 
C 538 4147 685 3859 826 3411 
C 966 2963 1037 2490 1037 1978 
C 1037 1466 966 986 826 538 
C 685 90 538 -198 173 -749 
L 653 -1062 
z
" transform="scale(0.015625)"/>
     </defs>
     <use xlink:href="#HiraginoSans-W4-b9f"/>
     <use xlink:href="#HiraginoSans-W4-982" transform="translate(100 0)"/>
     <use xlink:href="#HiraginoSans-W4-e21" transform="translate(200 0)"/>
     <use xlink:href="#HiraginoSans-W4-a3a" transform="translate(300 0)"/>
     <use xlink:href="#HiraginoSans-W4-1" transform="translate(400 0)"/>
     <use xlink:href="#HiraginoSans-W4-9" transform="translate(433.296875 0)"/>
     <use xlink:href="#HiraginoSans-W4-8d3" transform="translate(470.296875 0)"/>
     <use xlink:href="#HiraginoSans-W4-53d" transform="translate(570.296875 0)"/>
     <use xlink:href="#HiraginoSans-W4-373" transform="translate(670.296875 0)"/>
     <use xlink:href="#HiraginoSans-W4-372" transform="translate(770.296875 0)"/>
     <use xlink:href="#HiraginoSans-W4-a" transform="translate(870.296875 0)"/>
    </g>
   </g>
   <g id="legend_1">
    <g id="line2d_6">
     <path d="M 221.837472 44.20625 
L 231.837472 44.20625 
L 241.837472 44.20625 
" style="fill: none; stroke: #b03a2e; stroke-width: 2; stroke-linecap: square"/>
    </g>
    <g id="text_4">
     <!-- 1次転移 -->
     <g transform="translate(249.837472 47.70625) scale(0.1 -0.1)">
      <defs>
       <path id="HiraginoSans-W4-12" d="M 1018 4371 
C 1222 4397 1389 4410 1606 4410 
L 1939 4410 
L 1939 755 
C 1939 454 1926 237 1888 0 
L 2598 0 
C 2560 250 2547 448 2547 755 
L 2547 3904 
C 2547 4256 2566 4582 2605 4966 
C 2387 4941 2278 4934 2035 4934 
L 1581 4934 
C 1325 4934 1197 4941 1018 4966 
L 1018 4371 
z
" transform="scale(0.015625)"/>
       <path id="HiraginoSans-W4-8cd" d="M 3194 4346 
C 3251 4512 3277 4582 3360 4800 
C 3437 5024 3462 5082 3501 5203 
L 2950 5312 
C 2899 4947 2797 4614 2605 4186 
C 2387 3693 2080 3251 1709 2893 
C 1901 2771 2010 2669 2099 2541 
C 2541 3072 2739 3366 2995 3904 
L 5350 3904 
C 5126 3386 4890 3059 4448 2656 
C 4646 2554 4742 2490 4877 2368 
C 5267 2797 5517 3168 5818 3789 
C 5907 3968 5920 3987 5971 4083 
L 5683 4384 
C 5517 4358 5338 4346 5050 4346 
L 3194 4346 
z
M 422 4659 
C 915 4288 1139 4070 1536 3597 
L 1920 3968 
C 1530 4390 1280 4614 806 4986 
L 422 4659 
z
M 1914 2336 
C 1517 1888 1299 1696 813 1331 
C 538 1120 403 1037 250 973 
L 589 467 
C 646 525 685 557 806 653 
C 1325 1056 1824 1510 2189 1914 
L 1914 2336 
z
M 3366 3558 
C 3386 3456 3392 3379 3392 3283 
C 3392 2355 3174 1626 2714 1024 
C 2355 557 1926 243 1267 -13 
C 1402 -154 1491 -275 1581 -442 
C 2246 -141 2701 205 3066 685 
C 3354 1069 3558 1536 3661 2074 
C 3795 1485 4045 1005 4448 570 
C 4813 173 5210 -115 5811 -429 
C 5901 -243 5990 -109 6125 51 
C 5408 339 4909 698 4525 1203 
C 4090 1773 3891 2419 3891 3251 
C 3891 3386 3898 3469 3917 3558 
L 3366 3558 
z
" transform="scale(0.015625)"/>
       <path id="HiraginoSans-W4-c38" d="M 1971 602 
L 2496 602 
C 2746 602 2886 595 3053 570 
L 3053 1050 
C 2880 1024 2771 1018 2522 1018 
L 1971 1018 
L 1971 1542 
L 2374 1542 
C 2675 1542 2810 1536 2950 1523 
C 2938 1651 2931 1830 2931 2170 
L 2931 3238 
C 2931 3546 2938 3725 2950 3840 
C 2816 3827 2694 3821 2400 3821 
L 1971 3821 
L 1971 4333 
L 2541 4333 
C 2822 4333 2925 4326 3104 4307 
L 3104 4781 
C 2938 4755 2810 4749 2528 4749 
L 1971 4749 
L 1971 4826 
C 1971 5024 1984 5184 2016 5370 
L 1498 5370 
C 1530 5171 1542 5024 1542 4826 
L 1542 4749 
L 979 4749 
C 691 4749 557 4755 390 4781 
L 390 4301 
C 576 4326 698 4333 960 4333 
L 1542 4333 
L 1542 3821 
L 1190 3821 
C 890 3821 742 3827 576 3846 
C 595 3680 602 3501 602 3213 
L 602 2182 
C 602 1894 595 1690 576 1523 
C 755 1536 915 1542 1210 1542 
L 1542 1542 
L 1542 1018 
L 909 1018 
C 627 1018 512 1024 339 1050 
L 339 570 
C 506 595 672 602 928 602 
L 1542 602 
L 1542 122 
C 1542 -102 1530 -262 1498 -467 
L 2016 -467 
C 1984 -275 1971 -77 1971 109 
L 1971 602 
z
M 1965 1939 
L 1965 2522 
L 2534 2522 
L 2534 1939 
L 1965 1939 
z
M 1965 2880 
L 1965 3430 
L 2534 3430 
L 2534 2880 
L 1965 2880 
z
M 1542 3430 
L 1542 2880 
L 1005 2880 
L 1005 3430 
L 1542 3430 
z
M 1542 2522 
L 1542 1939 
L 1005 1939 
L 1005 2522 
L 1542 2522 
z
M 4045 2707 
C 3936 2157 3667 1261 3450 717 
C 3328 422 3328 422 3290 314 
C 3053 294 2982 294 2822 288 
L 2931 -230 
C 3046 -211 3117 -198 3290 -166 
C 4614 32 4883 77 5510 224 
C 5619 -109 5626 -128 5715 -410 
L 6163 -179 
C 5786 877 5645 1203 5178 2125 
L 4762 1952 
C 5018 1472 5171 1133 5370 614 
C 4826 506 4448 448 3795 371 
C 4160 1280 4333 1811 4557 2707 
L 5542 2707 
C 5792 2707 5958 2701 6125 2675 
L 6125 3187 
C 5958 3155 5818 3149 5542 3149 
L 3738 3149 
C 3456 3149 3315 3155 3149 3187 
L 3149 2675 
C 3322 2701 3482 2707 3731 2707 
L 4045 2707 
z
M 3386 4339 
C 3552 4365 3699 4371 3968 4371 
L 5318 4371 
C 5485 4371 5664 4365 5747 4358 
C 5837 4346 5837 4346 5894 4346 
L 5894 4858 
C 5728 4826 5606 4819 5318 4819 
L 3968 4819 
C 3674 4819 3546 4826 3386 4858 
L 3386 4339 
z
" transform="scale(0.015625)"/>
       <path id="HiraginoSans-W4-4a0" d="M 5568 4883 
C 5453 4864 5325 4858 5120 4858 
L 4198 4858 
C 4230 4902 4256 4934 4269 4954 
C 4320 5018 4352 5062 4358 5075 
C 4422 5171 4422 5171 4448 5216 
L 3962 5376 
C 3923 5248 3821 5062 3706 4909 
C 3405 4506 2963 4147 2445 3878 
C 2579 3763 2637 3699 2739 3526 
C 3270 3853 3552 4077 3891 4467 
L 5229 4467 
C 4954 4058 4730 3814 4333 3494 
C 4128 3686 3974 3802 3686 3994 
L 3354 3738 
C 3776 3437 3802 3418 3974 3226 
C 3456 2880 3110 2714 2451 2515 
C 2598 2349 2650 2272 2733 2106 
C 3091 2240 3162 2266 3296 2336 
C 3635 2490 4038 2733 4371 2976 
C 4934 3392 5344 3814 5677 4346 
C 5760 4474 5760 4474 5843 4595 
L 5568 4883 
z
M 5645 2093 
C 5338 1626 5094 1350 4672 1011 
C 4416 1242 4314 1318 3949 1562 
L 3603 1293 
C 3994 1030 4083 960 4301 742 
C 3661 326 3091 109 2253 -38 
C 2381 -198 2438 -301 2509 -486 
C 3443 -262 4000 -26 4653 422 
C 5248 832 5722 1344 6067 1958 
C 6157 2112 6189 2170 6227 2221 
L 5933 2515 
C 5805 2496 5690 2490 5485 2490 
L 4659 2490 
C 4717 2566 4800 2682 4838 2726 
C 4915 2829 4915 2829 4947 2874 
L 4493 3034 
C 4192 2413 3379 1786 2413 1421 
C 2554 1286 2630 1190 2714 1037 
C 3379 1331 3827 1632 4294 2093 
L 5645 2093 
z
M 1344 3706 
L 845 3706 
C 595 3706 474 3712 346 3738 
L 346 3245 
C 493 3270 621 3277 845 3277 
L 1274 3277 
C 1075 2573 627 1766 198 1318 
C 326 1158 397 1037 467 858 
C 890 1357 1158 1875 1376 2611 
C 1357 2310 1344 1882 1344 1690 
L 1344 275 
C 1344 -90 1331 -288 1306 -480 
L 1850 -480 
C 1824 -282 1811 -58 1811 275 
L 1811 1837 
C 1811 2042 1792 2483 1779 2714 
C 1946 2336 2042 2176 2259 1914 
C 2349 2099 2413 2195 2502 2330 
C 2182 2637 2016 2867 1830 3277 
L 2061 3277 
C 2246 3277 2362 3270 2496 3251 
L 2496 3731 
C 2374 3712 2259 3706 2061 3706 
L 1811 3706 
L 1811 4678 
C 2067 4755 2208 4806 2458 4922 
C 2515 4947 2534 4954 2598 4986 
L 2304 5389 
C 2182 5299 2061 5235 1862 5165 
C 1382 4992 966 4896 397 4826 
C 506 4666 550 4570 602 4410 
C 966 4467 1088 4493 1344 4550 
L 1344 3706 
z
" transform="scale(0.015625)"/>
      </defs>
      <use xlink:href="#HiraginoSans-W4-12"/>
      <use xlink:href="#HiraginoSans-W4-8cd" transform="translate(67.296875 0)"/>
      <use xlink:href="#HiraginoSans-W4-c38" transform="translate(167.296875 0)"/>
      <use xlink:href="#HiraginoSans-W4-4a0" transform="translate(267.296875 0)"/>
     </g>
    </g>
    <g id="line2d_7">
     <path d="M 221.837472 59.20625 
L 231.837472 59.20625 
L 241.837472 59.20625 
" style="fill: none; stroke-dasharray: 7.4,3.2; stroke-dashoffset: 0; stroke: #1f4e79; stroke-width: 2"/>
    </g>
    <g id="text_5">
     <!-- 2次転移 -->
     <g transform="translate(249.837472 62.70625) scale(0.1 -0.1)">
      <defs>
       <path id="HiraginoSans-W4-13" d="M 3078 0 
C 3424 0 3642 -6 3917 -32 
L 3917 589 
C 3693 557 3430 544 3091 544 
L 1114 544 
C 1280 1114 1606 1478 2451 2042 
C 3181 2528 3341 2656 3546 2912 
C 3738 3142 3846 3443 3846 3744 
C 3846 4525 3200 5030 2202 5030 
C 1613 5030 1158 4858 858 4518 
C 640 4269 531 4026 442 3565 
L 1088 3469 
C 1139 3782 1190 3936 1306 4102 
C 1491 4371 1792 4506 2208 4506 
C 2816 4506 3206 4211 3206 3744 
C 3206 3360 2995 3085 2387 2675 
C 1754 2246 1600 2138 1389 1952 
C 979 1594 710 1229 544 806 
C 448 563 429 461 365 -26 
C 576 -6 678 0 1107 0 
L 3078 0 
z
" transform="scale(0.015625)"/>
      </defs>
      <use xlink:href="#HiraginoSans-W4-13"/>
      <use xlink:href="#HiraginoSans-W4-8cd" transform="translate(67.296875 0)"/>
      <use xlink:href="#HiraginoSans-W4-c38" transform="translate(167.296875 0)"/>
      <use xlink:href="#HiraginoSans-W4-4a0" transform="translate(267.296875 0)"/>
     </g>
    </g>
   </g>
  </g>
  <g id="axes_2">
   <g id="patch_7">
    <path d="M 308.527159 181.72 
L 591.134318 181.72 
L 591.134318 29.90625 
L 308.527159 29.90625 
z
" style="fill: #ffffff"/>
   </g>
   <g id="matplotlib.axis_3">
    <g id="xtick_2">
     <g id="line2d_8">
      <g>
       <use xlink:href="#m54b2bf5ca8" x="485.156634" y="181.72" style="stroke: #000000; stroke-width: 0.8"/>
      </g>
     </g>
     <g id="text_6">
      <!-- $T_\mathrm{c}$ -->
      <g transform="translate(478.976634 199.28) scale(0.12 -0.12)">
       <use xlink:href="#DejaVuSans-Oblique-37" transform="translate(0 0.09375)"/>
       <use xlink:href="#DejaVuSans-46" transform="translate(61.083984 -14.906201) scale(0.7)"/>
      </g>
     </g>
    </g>
    <g id="text_7">
     <!-- $T$ -->
     <g transform="translate(446.110739 215.76) scale(0.12 -0.12)">
      <use xlink:href="#DejaVuSans-Oblique-37" transform="translate(0 0.09375)"/>
     </g>
    </g>
   </g>
   <g id="matplotlib.axis_4"/>
   <g id="line2d_9">
    <path d="M 312.059749 181.438252 
L 356.823589 177.769375 
L 365.216809 176.829362 
L 371.511725 175.914445 
L 377.107205 174.898238 
L 382.702685 173.657412 
L 388.298165 172.168639 
L 393.19421 170.650584 
L 398.090255 168.925598 
L 402.9863 166.991654 
L 408.58178 164.526597 
L 414.17726 161.794005 
L 419.77274 158.800769 
L 425.36822 155.555457 
L 430.963701 152.067667 
L 437.258616 147.866717 
L 443.553531 143.386476 
L 449.848446 138.641586 
L 456.842796 133.076422 
L 463.837146 127.220863 
L 471.530931 120.465459 
L 479.224716 113.40215 
L 484.820196 108.083533 
L 484.820196 108.083533 
" clip-path="url(#p904de7fd90)" style="fill: none; stroke: #b03a2e; stroke-width: 2; stroke-linecap: square"/>
   </g>
   <g id="line2d_10">
    <path d="M 485.519631 45.545553 
L 591.134318 37.12206 
L 591.134318 37.12206 
" clip-path="url(#p904de7fd90)" style="fill: none; stroke: #b03a2e; stroke-width: 2; stroke-linecap: square"/>
   </g>
   <g id="line2d_11">
    <path d="M 312.059749 181.438252 
L 344.233759 178.775185 
L 350.528674 178.000232 
L 355.424719 177.169825 
L 359.621329 176.244199 
L 363.817939 175.086331 
L 368.01455 173.672698 
L 372.21116 171.98844 
L 376.40777 170.026091 
L 380.60438 167.784061 
L 384.80099 165.265183 
L 388.9976 162.475462 
L 393.19421 159.423061 
L 397.39082 156.11752 
L 402.286865 151.954921 
L 407.18291 147.47883 
L 412.078955 142.706272 
L 417.674435 136.910227 
L 423.269915 130.772494 
L 428.865396 124.315528 
L 435.160311 116.695905 
L 441.455226 108.726325 
L 448.449576 99.491403 
L 455.443926 89.886953 
L 463.137711 78.928979 
L 470.831496 67.591919 
L 479.224716 54.82726 
L 484.820196 46.104171 
L 485.519631 45.545553 
L 591.134318 37.12206 
L 591.134318 37.12206 
" clip-path="url(#p904de7fd90)" style="fill: none; stroke-dasharray: 7.4,3.2; stroke-dashoffset: 0; stroke: #1f4e79; stroke-width: 2"/>
   </g>
   <g id="line2d_12">
    <path d="M 485.156634 181.72 
L 485.156634 29.90625 
" clip-path="url(#p904de7fd90)" style="fill: none; stroke-dasharray: 0.8,1.32; stroke-dashoffset: 0; stroke: #808080; stroke-width: 0.8"/>
   </g>
   <g id="patch_8">
    <path d="M 308.527159 181.72 
L 308.527159 29.90625 
" style="fill: none; stroke: #000000; stroke-width: 0.8; stroke-linejoin: miter; stroke-linecap: square"/>
   </g>
   <g id="patch_9">
    <path d="M 591.134318 181.72 
L 591.134318 29.90625 
" style="fill: none; stroke: #000000; stroke-width: 0.8; stroke-linejoin: miter; stroke-linecap: square"/>
   </g>
   <g id="patch_10">
    <path d="M 308.527159 181.72 
L 591.134318 181.72 
" style="fill: none; stroke: #000000; stroke-width: 0.8; stroke-linejoin: miter; stroke-linecap: square"/>
   </g>
   <g id="patch_11">
    <path d="M 308.527159 29.90625 
L 591.134318 29.90625 
" style="fill: none; stroke: #000000; stroke-width: 0.8; stroke-linejoin: miter; stroke-linecap: square"/>
   </g>
   <g id="patch_12">
    <path d="M 490.455518 104.9692 
Q 490.455518 76.815937 490.455518 48.662674 
" style="fill: none; stroke: #b03a2e; stroke-linecap: round"/>
    <path d="M 492.855518 100.1692 
L 490.455518 104.9692 
L 488.055518 100.1692 
" style="fill: none; stroke: #b03a2e; stroke-linecap: round"/>
    <path d="M 488.055518 53.462674 
L 490.455518 48.662674 
L 492.855518 53.462674 
" style="fill: none; stroke: #b03a2e; stroke-linecap: round"/>
   </g>
   <g id="text_8">
    <!-- $\Delta S$ (潜熱 $T_\mathrm{c} \Delta S$) -->
    <g style="fill: #b03a2e" transform="translate(497.520697 80.364543) scale(0.1 -0.1)">
     <defs>
      <path id="DejaVuSans-329" d="M 2188 4044 
L 906 525 
L 3472 525 
L 2188 4044 
z
M 50 0 
L 1831 4666 
L 2547 4666 
L 4325 0 
L 50 0 
z
" transform="scale(0.015625)"/>
      <path id="DejaVuSans-Oblique-36" d="M 3859 4513 
L 3738 3897 
Q 3422 4066 3111 4152 
Q 2800 4238 2509 4238 
Q 1944 4238 1609 3991 
Q 1275 3744 1275 3334 
Q 1275 3109 1398 2989 
Q 1522 2869 2034 2731 
L 2413 2638 
Q 3053 2472 3303 2217 
Q 3553 1963 3553 1503 
Q 3553 797 2998 353 
Q 2444 -91 1538 -91 
Q 1166 -91 791 -17 
Q 416 56 38 206 
L 166 856 
Q 513 641 861 531 
Q 1209 422 1556 422 
Q 2147 422 2503 684 
Q 2859 947 2859 1369 
Q 2859 1650 2717 1795 
Q 2575 1941 2106 2059 
L 1728 2156 
Q 1081 2325 845 2545 
Q 609 2766 609 3163 
Q 609 3859 1145 4304 
Q 1681 4750 2541 4750 
Q 2875 4750 3203 4690 
Q 3531 4631 3859 4513 
z
" transform="scale(0.015625)"/>
      <path id="HiraginoSans-W4-a9c" d="M 3264 3514 
C 3430 3514 3552 3507 3674 3494 
L 3674 3930 
C 3558 3910 3462 3904 3270 3904 
L 2944 3904 
C 2963 4090 2970 4160 2989 4442 
L 3258 4442 
C 3411 4442 3526 4435 3648 4422 
L 3648 4851 
C 3533 4832 3430 4826 3264 4826 
L 3002 4826 
C 3014 5158 3014 5203 3034 5338 
L 2541 5338 
C 2560 5242 2566 5120 2566 4954 
C 2566 4902 2566 4864 2566 4826 
L 2182 4826 
C 2003 4826 1882 4832 1760 4851 
L 1760 4422 
C 1875 4435 2029 4442 2189 4442 
L 2554 4442 
C 2541 4166 2534 4090 2509 3904 
L 2080 3904 
C 1882 3904 1773 3910 1645 3930 
L 1645 3488 
C 1786 3507 1894 3514 2074 3514 
L 2413 3514 
C 2253 3014 1997 2688 1530 2368 
C 1658 2266 1747 2157 1837 2010 
C 2278 2374 2509 2669 2726 3162 
C 2893 2861 3046 2688 3418 2381 
C 3520 2566 3565 2630 3680 2752 
C 3322 2995 3130 3187 2931 3514 
L 3264 3514 
z
M 5562 3514 
C 5779 3514 5920 3507 6080 3482 
L 6080 3936 
C 5933 3910 5792 3904 5568 3904 
L 4966 3904 
C 4986 4064 4998 4186 5018 4442 
L 5510 4442 
C 5702 4442 5850 4435 6003 4416 
L 6003 4858 
C 5824 4838 5670 4826 5491 4826 
L 5043 4826 
C 5062 5216 5062 5216 5082 5338 
L 4589 5338 
C 4602 5235 4608 5152 4608 4941 
C 4608 4915 4608 4877 4608 4826 
L 4346 4826 
C 4166 4826 4051 4832 3917 4851 
L 3917 4422 
C 4051 4435 4186 4442 4346 4442 
L 4595 4442 
C 4576 4198 4570 4109 4538 3904 
L 4243 3904 
C 4051 3904 3936 3910 3827 3930 
L 3827 3488 
C 3942 3507 4064 3514 4243 3514 
L 4442 3514 
C 4288 3098 4096 2867 3661 2566 
C 3776 2483 3866 2381 3968 2221 
C 4403 2579 4602 2829 4787 3270 
C 4896 3053 4979 2938 5146 2752 
C 5395 2470 5664 2246 5958 2074 
C 6035 2246 6106 2362 6214 2483 
C 5958 2605 5811 2701 5632 2854 
C 5382 3072 5216 3264 5062 3514 
L 5562 3514 
z
M 416 4941 
C 832 4666 1069 4461 1382 4115 
L 1690 4506 
C 1357 4832 1120 5024 717 5293 
L 416 4941 
z
M 250 3334 
C 646 3091 915 2886 1229 2579 
L 1517 3002 
C 1152 3296 870 3494 525 3699 
L 250 3334 
z
M 1235 1907 
C 1037 1286 890 934 666 538 
C 518 282 397 102 307 13 
L 762 -371 
C 813 -269 845 -205 896 -109 
C 1222 474 1382 845 1651 1619 
L 1235 1907 
z
M 2272 154 
C 2272 -147 2259 -333 2240 -493 
L 2733 -493 
L 2733 -141 
L 4998 -141 
L 4998 -493 
L 5485 -493 
C 5459 -320 5453 -154 5453 166 
L 5453 1709 
C 5453 1952 5459 2106 5478 2227 
C 5325 2208 5178 2202 4902 2202 
L 2816 2202 
C 2554 2202 2394 2208 2246 2227 
C 2266 2086 2272 1958 2272 1734 
L 2272 154 
z
M 2733 1798 
L 4992 1798 
L 4992 1261 
L 2733 1261 
L 2733 1798 
z
M 2733 858 
L 4992 858 
L 4992 275 
L 2733 275 
L 2733 858 
z
" transform="scale(0.015625)"/>
      <path id="HiraginoSans-W4-ce4" d="M 4544 4282 
C 4576 5158 4576 5158 4595 5306 
L 4090 5306 
C 4122 5133 4128 4998 4128 4717 
C 4128 4563 4128 4467 4122 4282 
L 3872 4282 
C 3693 4282 3584 4288 3437 4307 
L 3437 3821 
C 3565 3840 3706 3853 3872 3853 
L 4102 3853 
C 4077 3456 4058 3251 4006 3002 
C 3878 3142 3840 3187 3661 3366 
L 3386 3046 
C 3629 2803 3712 2720 3885 2522 
C 3686 1958 3424 1600 2944 1248 
C 3059 1158 3162 1056 3270 896 
C 3699 1261 3968 1619 4186 2131 
C 4314 1952 4390 1830 4589 1504 
L 4890 1869 
C 4678 2195 4595 2310 4346 2611 
C 4448 3021 4499 3366 4525 3853 
L 5024 3853 
C 5037 2950 5101 2310 5216 1875 
C 5344 1376 5536 1107 5773 1107 
C 6035 1107 6176 1421 6291 2298 
C 6150 2349 6061 2406 5939 2515 
C 5901 2003 5824 1613 5766 1613 
C 5734 1613 5638 1862 5594 2061 
C 5523 2406 5453 3187 5453 3680 
C 5453 3936 5466 4205 5485 4314 
C 5318 4288 5171 4282 4973 4282 
L 4544 4282 
z
M 1664 4832 
L 1107 4832 
C 922 4832 813 4838 640 4864 
L 640 4422 
C 794 4442 896 4448 1088 4448 
L 1664 4448 
L 1664 4000 
L 794 4000 
C 576 4000 435 4006 307 4026 
L 307 3590 
C 467 3610 614 3616 787 3616 
L 1171 3616 
C 1120 3424 1056 3322 922 3200 
C 755 3046 589 2970 269 2886 
C 390 2739 429 2675 493 2496 
C 934 2675 1126 2797 1312 3008 
C 1459 3187 1542 3360 1600 3616 
L 2170 3616 
L 2170 3104 
C 2170 2899 2304 2829 2694 2829 
C 3245 2829 3322 2886 3405 3373 
C 3270 3398 3181 3430 3059 3494 
L 3046 3411 
C 3014 3168 2989 3142 2739 3142 
C 2579 3142 2554 3155 2554 3232 
L 2554 3616 
L 2803 3616 
C 3040 3616 3136 3610 3277 3597 
L 3277 4019 
C 3136 4006 2995 4000 2797 4000 
L 2093 4000 
L 2093 4448 
L 2656 4448 
C 2822 4448 2995 4442 3110 4422 
L 3110 4864 
C 2989 4838 2842 4832 2618 4832 
L 2093 4832 
L 2093 4960 
C 2093 5107 2106 5242 2125 5350 
L 1626 5350 
C 1651 5254 1664 5107 1664 4960 
L 1664 4832 
z
M 1645 2528 
L 1082 2528 
C 909 2528 806 2534 685 2554 
L 685 2125 
C 794 2144 922 2150 1075 2150 
L 1645 2150 
L 1645 1613 
C 1107 1549 691 1510 461 1510 
C 448 1510 448 1510 358 1510 
L 448 1037 
C 525 1050 646 1075 794 1094 
C 2477 1338 2477 1338 3123 1472 
L 3117 1843 
C 2682 1760 2547 1741 2054 1670 
L 2054 2150 
L 2637 2150 
C 2810 2150 2912 2144 3034 2131 
L 3034 2547 
C 2938 2534 2816 2528 2643 2528 
L 2054 2528 
L 2054 2630 
C 2054 2822 2061 2931 2080 3053 
L 1619 3053 
C 1638 2938 1645 2822 1645 2637 
L 1645 2528 
z
M 781 -461 
C 1190 -58 1370 192 1632 704 
L 1216 915 
C 998 461 806 224 378 -141 
L 781 -461 
z
M 2778 -384 
C 2746 102 2701 416 2605 781 
L 2163 723 
C 2246 346 2278 58 2291 -435 
L 2778 -384 
z
M 4282 -314 
C 4147 224 4070 442 3891 806 
L 3462 704 
C 3629 339 3706 83 3802 -435 
L 4282 -314 
z
M 6048 -198 
C 5747 269 5613 448 5152 960 
L 4768 749 
C 5165 282 5338 32 5606 -474 
L 6048 -198 
z
" transform="scale(0.015625)"/>
     </defs>
     <use xlink:href="#DejaVuSans-329" transform="translate(0 0.40625)"/>
     <use xlink:href="#DejaVuSans-Oblique-36" transform="translate(68.408203 0.40625)"/>
     <use xlink:href="#HiraginoSans-W4-1" transform="translate(131.884766 0.40625)"/>
     <use xlink:href="#HiraginoSans-W4-9" transform="translate(165.184738 0.40625)"/>
     <use xlink:href="#HiraginoSans-W4-a9c" transform="translate(202.184708 0.40625)"/>
     <use xlink:href="#HiraginoSans-W4-ce4" transform="translate(302.184616 0.40625)"/>
     <use xlink:href="#HiraginoSans-W4-1" transform="translate(402.184525 0.40625)"/>
     <use xlink:href="#DejaVuSans-Oblique-37" transform="translate(435.484497 0.40625)"/>
     <use xlink:href="#DejaVuSans-46" transform="translate(496.568481 -14.593701) scale(0.7)"/>
     <use xlink:href="#DejaVuSans-329" transform="translate(537.789185 0.40625)"/>
     <use xlink:href="#DejaVuSans-Oblique-36" transform="translate(606.197388 0.40625)"/>
     <use xlink:href="#HiraginoSans-W4-a" transform="translate(669.67395 0.40625)"/>
    </g>
   </g>
   <g id="text_9">
    <!-- エントロピー -->
    <g transform="translate(414.370739 23.90625) scale(0.12 -0.12)">
     <defs>
      <path id="HiraginoSans-W4-3a4" d="M 3424 3827 
L 4614 3827 
C 4979 3827 5158 3821 5382 3795 
L 5382 4384 
C 5152 4346 5005 4339 4608 4339 
L 1786 4339 
C 1395 4339 1248 4346 1018 4384 
L 1018 3795 
C 1242 3821 1414 3827 1779 3827 
L 2854 3827 
L 2854 1056 
L 1306 1056 
C 909 1056 762 1062 531 1101 
L 531 506 
C 755 531 928 538 1293 538 
L 5107 538 
C 5472 538 5645 531 5869 506 
L 5869 1101 
C 5638 1062 5491 1056 5094 1056 
L 3424 1056 
L 3424 3827 
z
" transform="scale(0.015625)"/>
      <path id="HiraginoSans-W4-3ef" d="M 934 4160 
C 1504 3821 2016 3405 2496 2893 
L 2886 3373 
C 2419 3827 2022 4134 1312 4589 
L 934 4160 
z
M 1030 -19 
C 1171 26 1222 38 1427 83 
C 2458 314 3174 595 3827 1043 
C 4685 1626 5280 2368 5805 3507 
C 5581 3654 5510 3725 5331 3949 
C 4806 2573 3962 1645 2739 1101 
C 2144 838 1376 640 864 621 
L 1030 -19 
z
" transform="scale(0.015625)"/>
      <path id="HiraginoSans-W4-3c4" d="M 2483 -224 
C 2458 -26 2451 179 2451 518 
L 2451 2189 
C 2451 2445 2445 2554 2426 2714 
C 2515 2656 2541 2650 2637 2605 
C 3546 2221 4429 1747 4992 1350 
L 5312 1907 
C 4224 2534 3354 2938 2451 3258 
L 2451 4397 
C 2451 4755 2458 4934 2483 5120 
L 1837 5120 
C 1869 4954 1875 4800 1875 4416 
L 1875 518 
C 1875 154 1869 -13 1837 -224 
L 2483 -224 
z
" transform="scale(0.015625)"/>
      <path id="HiraginoSans-W4-3e9" d="M 4864 480 
L 4864 32 
L 5453 32 
C 5434 179 5427 371 5427 666 
L 5427 3994 
C 5427 4282 5434 4410 5453 4576 
C 5261 4557 5139 4550 4819 4550 
L 1587 4550 
C 1293 4550 1146 4557 947 4570 
C 966 4403 973 4282 973 3994 
L 973 659 
C 973 378 966 179 947 32 
L 1536 32 
L 1536 480 
L 4864 480 
z
M 4864 986 
L 1536 986 
L 1536 4045 
L 4864 4045 
L 4864 986 
z
" transform="scale(0.015625)"/>
      <path id="HiraginoSans-W4-3d0" d="M 5613 5478 
C 5210 5478 4883 5152 4883 4749 
C 4883 4346 5210 4019 5613 4019 
C 6016 4019 6342 4346 6342 4749 
C 6342 5152 6016 5478 5613 5478 
z
M 5613 5197 
C 5856 5197 6061 4992 6061 4749 
C 6061 4506 5856 4301 5613 4301 
C 5370 4301 5165 4506 5165 4749 
C 5165 4992 5370 5197 5613 5197 
z
M 1805 4256 
C 1805 4544 1818 4698 1843 4890 
L 1210 4890 
C 1235 4710 1242 4563 1242 4262 
L 1242 1382 
C 1242 1088 1248 960 1261 858 
C 1293 557 1376 365 1536 237 
C 1773 45 2195 -32 2989 -32 
C 3578 -32 4346 13 5018 90 
C 5216 115 5216 115 5299 115 
L 5261 723 
C 5005 653 4877 627 4614 595 
C 4141 531 3539 486 3130 486 
C 2445 486 2054 550 1926 685 
C 1830 787 1805 922 1805 1357 
L 1805 2368 
C 2394 2483 2592 2528 3040 2669 
C 3667 2867 4314 3136 4896 3450 
C 5050 3533 5062 3546 5178 3590 
L 4794 4109 
C 4589 3923 4314 3763 3808 3533 
C 3136 3226 2419 2995 1805 2886 
L 1805 4256 
z
" transform="scale(0.015625)"/>
      <path id="HiraginoSans-W4-294" d="M 531 2131 
C 755 2157 915 2163 1421 2163 
L 5005 2163 
C 5446 2163 5632 2157 5875 2131 
L 5875 2765 
C 5651 2733 5523 2726 5011 2726 
L 1414 2726 
C 973 2726 736 2739 531 2765 
L 531 2131 
z
" transform="scale(0.015625)"/>
     </defs>
     <use xlink:href="#HiraginoSans-W4-3a4"/>
     <use xlink:href="#HiraginoSans-W4-3ef" transform="translate(100 0)"/>
     <use xlink:href="#HiraginoSans-W4-3c4" transform="translate(200 0)"/>
     <use xlink:href="#HiraginoSans-W4-3e9" transform="translate(300 0)"/>
     <use xlink:href="#HiraginoSans-W4-3d0" transform="translate(400 0)"/>
     <use xlink:href="#HiraginoSans-W4-294" transform="translate(491 0)"/>
    </g>
   </g>
  </g>
 </g>
 <defs>
  <clipPath id="p93e80845c7">
   <rect x="12.96" y="29.90625" width="282.607159" height="151.81375"/>
  </clipPath>
  <clipPath id="p904de7fd90">
   <rect x="308.527159" y="29.90625" width="282.607159" height="151.81375"/>
  </clipPath>
 </defs>
</svg>
